<?xml version="1.0" encoding="utf-8"?>
<!-- Generator: Adobe Illustrator 19.2.1, SVG Export Plug-In . SVG Version: 6.00 Build 0)  -->
<svg version="1.1" id="Capa_1" xmlns="http://www.w3.org/2000/svg" xmlns:xlink="http://www.w3.org/1999/xlink" x="0px" y="0px"
	 viewBox="0 0 276 250" style="enable-background:new 0 0 276 250;" xml:space="preserve">
<style type="text/css">
	.st0{fill:#949297;}
	.st1{fill:#007EBE;}
	.st2{fill:#00DFFA;}
	.st3{font-family:'FranklinGothic-Demi';}
	.st4{font-size:39.1044px;}
	.st5{font-family:'Ebrima';}
</style>
<path class="st0" d="M59.2,122c-1.5,0.2-3,0.2-4.2-0.8c0.5-0.7,1.1-1,1.7-0.1c-0.2-0.8-0.9-0.7-1.5-0.7c-1.2,0-2.4-0.2-3.6,0.3
	c-1.8-0.7-3.5-1.3-5.3-2c-0.2-0.6-0.6-0.7-1.1-0.4c-0.5-0.2-1-0.5-1.5-0.7c-0.2-0.4-0.1-1.4-1-0.5c-0.5-0.3-1-0.5-1.5-0.8
	c-0.1-0.6-0.5-0.7-1-0.5c-0.5-0.3-0.9-0.7-1.4-1c-0.4-0.5-0.8-1.1-1.5-1.2l0.1,0.2c-0.1-0.5-0.4-0.7-1-0.5c-3.7-2.1-6.5-5-8.7-8.7
	c0.1-0.6-0.1-0.9-0.7-1c-0.6-0.9-1.3-1.8-1.9-2.8c0.2-0.5,0.1-0.9-0.5-1c-0.3-0.5-0.6-1-0.9-1.4c0.3-0.5,0.1-0.9-0.4-1.1
	c-0.3-0.5-0.5-1-0.8-1.5c0.3-0.5,0.2-0.8-0.3-1.1c-1.5-1.9-2.1-4.1-2.2-6.4c0.5-1.3,1-2.5-0.5-3.6c-1.4-4.3-1.5-8.6,0.1-12.8
	c0.9-0.7,1-1.5,0.3-2.4c-0.2-1.5,0-2.8,1.1-3.9c0.3-0.2,0.4-0.5,0.4-0.7c-0.1-0.3-0.1-0.4-0.2-0.4c0.2-2,0.9-3.7,2.3-5.2
	c0.4-0.3,0.6-0.6,0.4-1.1c0.6-0.9,1.1-1.9,1.7-2.8c0.3-0.3,1.5,0,0.7-1c0.7-0.9,1.3-1.8,2-2.7c0.7-0.2,1.3-0.6,1.5-1.4l-0.2,0.1
	c0.7-0.1,0.9-0.8,1.3-1.2c0.4-0.5,0.9-0.9,1.3-1.3c0.5-0.4,0.9-0.9,1.3-1.3c0.5-0.4,1.1-0.5,1.3-1.3l-0.1,0.2
	c0.7-0.2,1.1-0.7,1.4-1.4c0.9-0.7,1.8-1.4,2.7-2c0.5,0.2,0.9,0,1-0.5c2.6-2.4,5.8-3.5,9.1-4.4c0.9,0.5,1.7,0.4,2.3-0.4
	c0.9-0.3,1.8-0.6,2.7-0.9c1.7,0.5,3.4,1,4.9-0.4c0.5-0.6,1-0.4,1.4,0.1c0.4,0.6,0.9,1,1.6,1.1c0.3,5.9,3.5,12.2-1.8,17.6
	c-1.2-0.2-2.5-1.2-3.4,0.4c-1.8,0.7-3.6,1.5-5.4,2.2c-0.5-0.3-0.9-0.1-1,0.5c-0.9,0.6-1.8,1.3-2.8,1.9c-0.5-0.2-0.9,0-1,0.6l0.1-0.2
	c-0.7,0.2-1.2,0.7-1.4,1.4l0.1-0.1c-0.7,0.2-1.2,0.7-1.4,1.4l0.2-0.1c-0.5,0.1-0.7,0.4-0.6,1c-0.7,0.9-1.4,1.8-2,2.7
	c-0.5,0.2-0.6,0.6-0.4,1.1c-0.3,0.5-0.6,0.9-0.9,1.4c-0.3,0.2-0.5,0.4-0.5,0.7c0,0.3,0.1,0.4,0.2,0.4c-0.2,0.5-0.4,1-0.7,1.5
	c-1.2,0.5-1.2,1.3-0.5,2.3c0,3.4,0,6.8-0.1,10.2c-0.6,0.9-0.5,1.7,0.4,2.4c1.1,2.2,2.2,4.3,3.3,6.5c-0.1,0.5,0.1,0.9,0.6,1
	c1.6,1.6,3.3,3.3,4.9,4.9c0.2,0.5,0.5,0.7,1.1,0.6c2.2,1.1,4.3,2.3,6.5,3.4c0.3,0.4,0.7,0.5,1.2,0.2c7.1,1.4,13.7,0,20.3-2.5
	c0.5,0.3,0.9,0.1,1-0.4c0.9-0.6,1.9-1.3,2.8-1.9c0.5,0.1,0.9-0.1,1-0.6c2-2.1,4.1-4.1,6.1-6.2c0.7-0.3,1.2-0.7,1.4-1.4l-0.2,0.1
	c0.6-0.1,0.7-0.4,0.6-1c1.1-1.3,2.2-2.7,3.2-4c0.7-0.3,1.2-0.7,1.4-1.4l-0.2,0c0.6-0.1,0.8-0.4,0.5-0.9c0.7-0.9,1.4-1.8,2.2-2.7
	c0.6-0.3,1.1-0.7,1.3-1.4l-0.2,0.1c0.5-0.1,0.7-0.5,0.5-1c1.1-1.3,2.1-2.7,3.2-4c0.5-0.1,0.8-0.5,0.7-1c1.1-1.3,2.1-2.7,3.2-4
	c0.5-0.2,0.7-0.5,0.6-1c1-1.3,2.1-2.7,3.1-4c0.7-0.3,1.2-0.7,1.4-1.5l-0.2,0c0.6,0,0.8-0.4,0.5-0.9c0.7-0.9,1.4-1.8,2.1-2.7
	c0.7-0.3,1.2-0.7,1.4-1.4l-0.2,0c0.6-0.1,0.8-0.4,0.5-0.9c0.7-0.9,1.4-1.8,2.1-2.7c0.7-0.3,1.2-0.7,1.4-1.4l-0.2,0
	c0.6-0.1,0.8-0.4,0.5-0.9c0.7-0.9,1.4-1.8,2.1-2.7c0.7-0.3,1.2-0.7,1.4-1.4l-0.2,0c0.6-0.1,0.8-0.4,0.5-0.9c0.7-0.9,1.4-1.8,2.1-2.7
	c0.5-0.2,0.7-0.5,0.6-1c1-1.3,2.1-2.7,3.1-4c0.7-0.3,1.2-0.7,1.4-1.5c0.5-0.2,1-0.5,1.5-0.7c5.4,0.7,10.8,0.7,16.3,0
	c1.1-0.2,1.9,0.1,2.3,1.2c-0.1,0.6,0.2,0.9,0.8,0.9c0.6,0.9,1.3,1.9,1.9,2.8c-0.2,0.6,0,0.9,0.6,1c0.6,0.9,1.3,1.9,1.9,2.8
	c-0.2,0.6,0,0.9,0.6,1c0.6,0.9,1.3,1.9,1.9,2.8c-0.2,0.5,0,0.9,0.6,1c0.6,0.9,1.3,1.9,1.9,2.8c-0.2,0.6,0,0.9,0.6,1
	c0.6,0.9,1.3,1.8,1.9,2.8c-0.1,0.6,0.1,0.9,0.6,1c0.6,0.9,1.3,1.8,1.9,2.8c-0.2,0.6,0,0.9,0.6,1c0.6,0.9,1.3,1.8,1.9,2.8
	c-0.2,0.5,0,0.9,0.6,1c0.7,0.9,1.3,1.8,2,2.8c-0.2,0.6,0,0.9,0.6,1c0.6,0.9,1.3,1.8,1.9,2.8c-0.3,0.5-0.1,0.9,0.5,1l-0.2,0
	c0.1,0.7,0.7,1.1,1.2,1.5c0.7,0.9,1.3,1.8,2,2.7c-0.1,0.5,0.1,0.8,0.6,1c0.7,0.9,1.3,1.8,2,2.7c-0.1,0.5,0.1,0.9,0.6,1
	c0.7,0.9,1.4,1.8,2,2.7c-0.1,0.6,0,0.9,0.6,1c1,1.4,2,2.7,3.1,4.1c-0.1,0.5,0.1,0.9,0.6,1c2.5,2.5,4.9,4.9,7.4,7.4
	c0.2,0.5,0.5,0.7,1,0.6c1.3,0.8,2.6,1.5,3.9,2.3c0.3,0.4,0.7,0.5,1.1,0.3c0.5,0.3,1,0.5,1.5,0.8c0.6,1,1.4,1,2.3,0.5
	c0.9,0.3,1.8,0.5,2.7,0.8c9.6,1.6,19.2,0.9,28.9,0.4c1.5,0.1,2.2,0.9,2.4,2.4c-0.6,4.6-0.7,9.2,0,13.7c-0.2,0.5-0.5,1-0.7,1.5
	c-8.3,1.1-16.7,0.2-25,0.5c-2.3,0.1-4.6-0.4-6.8,0.4c-1.4,0.2-2.8,0.2-3.9-0.9c-0.7-0.9-1.5-1-2.4-0.4c-2.3-0.2-4.6-0.8-6.4-2.3
	c-0.3-0.4-0.7-0.5-1.1-0.3c-0.5-0.3-1-0.5-1.5-0.8c-0.2-0.5-0.6-0.7-1.1-0.4c-0.5-0.3-1-0.6-1.5-0.9c-0.2-0.5-0.5-0.7-1-0.4
	c-0.9-0.6-1.9-1.2-2.8-1.8c-0.3-0.3,0-1.5-1-0.7c-1.7-0.6-3-1.7-4-3.3c-0.3-0.7-0.7-1.2-1.4-1.5l0.1,0.1c-0.3-0.7-0.8-1.1-1.5-1.4
	c-1.5-1-2.7-2.3-3.3-4c0.2-0.5,0.1-0.8-0.5-0.9l0.2,0c-0.2-0.7-0.7-1.1-1.3-1.4c-0.7-0.9-1.4-1.8-2.1-2.7c0.1-0.6-0.1-0.9-0.6-1
	c-1-1.4-2-2.7-3-4.1c0.1-0.5-0.1-0.8-0.5-1c-0.7-0.9-1.4-1.8-2-2.7c0.1-0.5-0.1-0.9-0.6-1c-0.7-0.9-1.3-1.8-2-2.8
	c0.1-0.5,0-0.9-0.6-1c-0.7-0.9-1.3-1.8-2-2.7c0.2-0.6,0-0.9-0.6-1c-0.6-0.9-1.3-1.8-1.9-2.8c0.1-0.5,0-0.9-0.6-1
	c-0.6-0.9-1.3-1.8-1.9-2.8c0.2-0.5,0-0.9-0.6-1c-0.6-0.9-1.3-1.8-1.9-2.8c0.1-0.5,0-0.9-0.5-1c-0.6-0.9-1.3-1.8-1.9-2.8
	c0.1-0.5-0.1-0.9-0.6-1c-0.6-0.9-1.3-1.8-1.9-2.7c0.1-0.5,0-0.9-0.5-1.1c-0.3-0.5-0.7-0.9-1-1.4l0,0c-1.7-2.2-3.5-3.6-6-1
	c-0.6,0.1-0.8,0.4-0.7,1c-1,1.3-2.1,2.7-3.1,4c-0.6,0.1-0.8,0.4-0.7,1c-1,1.3-2.1,2.7-3.1,4c-0.6,0.1-0.8,0.5-0.7,1
	c-1,1.3-2.1,2.7-3.1,4c-0.6,0.1-0.8,0.4-0.7,1c-1,1.3-2.1,2.7-3.1,4c-0.5,0.1-0.8,0.5-0.7,1c-1,1.3-2.1,2.7-3.1,4
	c-0.7,0.3-1.3,0.7-1.4,1.4l0.2,0c-0.6,0.1-0.8,0.3-0.5,0.9c-0.7,0.9-1.4,1.8-2.2,2.7c-0.6,0.3-1.2,0.7-1.3,1.4l0.2,0
	c-0.6,0.1-0.8,0.4-0.5,0.9c-1.1,1.3-2.1,2.7-3.2,4c-0.5,0.1-0.8,0.5-0.7,1c-1.4,1.8-2.9,3.5-4.3,5.3c-0.6,0.2-1,0.7-1.3,1.2
	c-0.3,0.3-0.5,0.6-0.5,1.1c-2.6,4-5.9,7.4-10.1,9.8c-0.5-0.1-0.9,0.1-1,0.6c-4.9,3.9-10.5,6.1-16.6,7.1c-1.3-0.5-2.6-1-3.6,0.5
	c-1.2,1.1-2.6,1-4,0.8C64.1,121.3,61.6,121.4,59.2,122z"/>
<path class="st0" d="M118.2,192.8c-0.2,0.5-0.5,1-0.7,1.5c-0.4,0.1-0.6,0.3-0.6,0.6c0,0.3,0.1,0.5,0.2,0.5c-0.3,1.9-0.9,3.7-2.4,5.1
	c-0.3,0.2-0.5,0.4-0.5,0.7c0,0.3,0.1,0.4,0.2,0.4c-0.3,0.5-0.5,1-0.8,1.5c-0.8,0.4-1.1,1.3-1.9,1.7c-1.7,0.1-3.5,0.5-4.3-1.7
	c0.3-0.5,0.6-0.9,0.9-1.4c0.3-0.2,0.4-0.4,0.4-0.7c0-0.3,0-0.4-0.1-0.4c0.3-0.5,0.6-1,0.8-1.4c0.4-0.2,0.5-0.4,0.5-0.7
	c0-0.3-0.1-0.5-0.2-0.5c1.2-2.6,2.4-5.1,3.6-7.7c0.3-0.2,0.4-0.4,0.4-0.7c0-0.3-0.1-0.4-0.1-0.4c0.3-0.5,0.6-1,0.8-1.5
	c0.4-0.1,0.5-0.4,0.5-0.6c0-0.3-0.1-0.5-0.2-0.5c0.8-1.7,1.6-3.4,2.4-5.1c2.5-0.9,4.8-0.9,6.7,1.1c0.2,0.5,0.5,1,0.7,1.5
	c-0.3,0.5-0.2,0.9,0.4,1.1c0.3,0.5,0.5,1,0.8,1.5c-0.3,0.5-0.1,0.8,0.3,1.1c0.3,0.5,0.6,0.9,0.9,1.4c-0.2,0.5-0.1,0.8,0.3,1.1
	c0.8,1.7,1.6,3.4,2.4,5.1c-0.3,0.5-0.2,0.8,0.3,1.1c0.3,0.5,0.6,1,0.8,1.5c-0.3,0.5-0.1,0.8,0.3,1.1c1.4,1.4,2.1,3.2,2.3,5.1
	c-1.3,1.1-2.9,0.5-4.4,0.5c-0.9-0.3-1.3-1.3-2.1-1.7c-0.3-0.5-0.5-1-0.8-1.5c0.3-0.5,0.2-0.8-0.3-1.1c-1.4-1.4-2.1-3.2-2.4-5.1
	c0.3-0.5,0.1-0.9-0.5-1.1c-0.2-0.5-0.5-1-0.7-1.5c0.3-0.5,0.2-0.9-0.3-1.1c-0.7-0.8-1.3-1.7-2-2.5c-0.5,0.2-0.7,0.5-0.6,1
	c-0.3,0.5-0.6,1-0.9,1.4c-0.3,0.2-0.5,0.4-0.5,0.7C118,192.7,118.1,192.8,118.2,192.8z"/>
<path class="st0" d="M204.2,120.8c10.6-2.3,21.2-0.6,31.8-0.9C225.5,122.7,214.8,121,204.2,120.8z"/>
<path class="st0" d="M234.4,102.3c-9.6,1.5-19.3,2.2-28.9-0.4C215.1,102,224.7,102.2,234.4,102.3z"/>
<path class="st0" d="M147.3,35.4c-5.4,1.7-10.8,1.7-16.3,0C136.5,35.4,141.9,35.4,147.3,35.4z"/>
<path class="st0" d="M236.7,118.4c-1.7-4.6-1.7-9.2,0-13.7C236.7,109.3,236.7,113.8,236.7,118.4z"/>
<path class="st0" d="M123.9,182.6c-2.2-0.4-4.5-0.7-6.7-1.1C119.8,179.1,122.2,178.4,123.9,182.6z"/>
<path class="st0" d="M107.4,203.1c1.6,0.4,3.1,0.8,4.7,1.2c0.3-0.4,0.7-0.5,1.1,0C110.8,205.8,108.6,207.2,107.4,203.1z"/>
<path class="st0" d="M59.2,122c2.5-1.6,4.9-1.6,7.4,0C64.1,122,61.6,122,59.2,122z"/>
<path class="st0" d="M128.4,204.2c1.6,0,3.3,0,4.9,0c-2,2.1-4,1.9-6,0C127.7,203.8,128.1,203.8,128.4,204.2z"/>
<path class="st0" d="M51.6,120.7c1.1-1.2,2.5-1,3.8-0.9c0.4,0,0.7,0.5,1.1,0.7c-0.5,0.2-1,0.4-1.6,0.6
	C53.8,121,52.7,120.9,51.6,120.7z"/>
<path class="st0" d="M59,35c-1.5,2.1-3.1,1.8-4.9,0.4C55.7,35.3,57.4,35.2,59,35z"/>
<path class="st0" d="M56.8,54.3c0.8-3,2.2-0.9,3.4-0.4C59.1,54,58,54.1,56.8,54.3z"/>
<path class="st0" d="M19.7,84.6c2,1,1.8,2.2,0.5,3.6C20,86.9,19.9,85.7,19.7,84.6z"/>
<path class="st0" d="M70.6,121.3c1-2,2.2-1.8,3.6-0.5C73,121,71.8,121.1,70.6,121.3z"/>
<path class="st0" d="M51.4,36.3c-0.5,1.3-1.3,1.5-2.3,0.4C49.9,36.6,50.7,36.5,51.4,36.3z"/>
<path class="st0" d="M20.1,69.3c1.2,1,1.1,1.8-0.3,2.4C19.9,70.9,20,70.1,20.1,69.3z"/>
<path class="st0" d="M38.7,73c-1.2-1.1-1-1.9,0.5-2.3C39.1,71.5,38.9,72.2,38.7,73z"/>
<path class="st0" d="M33.9,46.5c-0.4,0.4-0.9,0.9-1.3,1.3c-0.4-0.2-0.5-0.4-0.4-0.6c0.1-0.2,0.2-0.3,0.4-0.3
	c0.4-0.4,0.8-0.8,1.2-1.2C33.9,45.9,33.9,46.2,33.9,46.5z"/>
<path class="st0" d="M39.1,85.6c-1.4-0.6-1.5-1.4-0.4-2.4C38.8,84,38.9,84.8,39.1,85.6z"/>
<path class="st0" d="M32.6,46.8c0,0.3,0,0.6,0,0.9c-0.4,0.4-0.8,0.8-1.3,1.3c-0.4-0.2-0.5-0.4-0.4-0.6c0.1-0.2,0.2-0.3,0.4-0.3
	C31.8,47.6,32.2,47.2,32.6,46.8z"/>
<path class="st0" d="M202.8,101.1c-1,1.1-1.8,0.9-2.3-0.5C201.3,100.8,202,100.9,202.8,101.1z"/>
<path class="st0" d="M101.9,103.3c-0.1-0.3-0.2-0.6-0.3-0.9c0-0.1,0.3-0.2,0.5-0.3c0.2,0,0.5,0,0.7,0
	C102.5,102.5,102.2,102.9,101.9,103.3z"/>
<path class="st0" d="M197.9,119.6c1-1.2,1.8-1,2.4,0.4C199.5,119.8,198.7,119.7,197.9,119.6z"/>
<path class="st0" d="M31.4,48.1c0,0.3,0,0.6,0,0.9c-0.5,0.4-1.1,0.8-1.6,1.1C30.3,49.4,30.8,48.8,31.4,48.1z"/>
<path class="st0" d="M24.1,58c0,0.3,0.1,0.6,0.1,0.9c0,0.1-0.3,0.1-0.5,0.2C23.6,58.7,23.8,58.3,24.1,58z"/>
<path class="st0" d="M46.7,59.5c0.1-0.6,0.2-1.2,1-0.6C47.4,59.3,47.1,59.5,46.7,59.5z"/>
<path class="st0" d="M135.8,59.1c-0.6-0.9,0-0.9,0.7-1C136.3,58.5,136.1,58.8,135.8,59.1z"/>
<path class="st0" d="M45.3,60.7c0.5-0.5,0.9-0.9,1.4-1.4C46.3,59.8,45.8,60.2,45.3,60.7z"/>
<path class="st0" d="M165.4,60.3c-0.6-0.1-1.2-0.2-0.6-1C165.2,59.5,165.4,59.9,165.4,60.3z"/>
<path class="st0" d="M44.1,62c0.5-0.5,0.9-0.9,1.4-1.4C45,61,44.5,61.5,44.1,62z"/>
<path class="st0" d="M110.9,60.5c0.1,0.2,0.3,0.3,0.4,0.5c-0.3,0.2-0.6,0.3-0.9,0.5C110.4,61,110.6,60.7,110.9,60.5z"/>
<path class="st0" d="M143.4,60.5c0.3,0.2,0.5,0.4,0.8,0.6c0,0-0.2,0.3-0.3,0.5C143.6,61.3,143.5,61,143.4,60.5z"/>
<path class="st0" d="M43.6,62.9c-0.1-0.2-0.2-0.3-0.3-0.5c0.3-0.2,0.6-0.3,0.9-0.5C44.2,62.3,44,62.6,43.6,62.9z"/>
<path class="st0" d="M110.6,61.4c-0.5,0.5-0.9,1-1.4,1.5C109.7,62.4,110.2,61.9,110.6,61.4z"/>
<path class="st0" d="M168,64.1c-0.3-0.2-0.6-0.4-0.9-0.5c0.1-0.2,0.2-0.3,0.3-0.5C167.7,63.3,167.9,63.7,168,64.1z"/>
<path class="st0" d="M21.4,64.3c0.1,0.3,0.2,0.6,0.3,0.9c0,0.1-0.3,0.2-0.5,0.3C21.1,65,21.2,64.6,21.4,64.3z"/>
<path class="st0" d="M145.9,64.3c0.3,0.2,0.6,0.4,0.8,0.6c0,0-0.2,0.3-0.3,0.5C146.1,65.1,145.9,64.8,145.9,64.3z"/>
<path class="st0" d="M41.1,66.7c0-0.3-0.1-0.6-0.1-0.9c0-0.1,0.3-0.1,0.5-0.2C41.6,66,41.4,66.4,41.1,66.7z"/>
<path class="st0" d="M106.1,66.9c0.5,0.8,0,0.9-0.6,1C105.5,67.5,105.8,67.1,106.1,66.9z"/>
<path class="st0" d="M170.5,67.8c-0.6-0.1-1.5,0-0.6-1C170.2,67.1,170.4,67.4,170.5,67.8z"/>
<path class="st0" d="M40,69.2c-0.1-0.3-0.2-0.6-0.2-0.9c0-0.1,0.3-0.1,0.5-0.2C40.3,68.5,40.2,68.9,40,69.2z"/>
<path class="st0" d="M128.2,69.2c-0.6-0.9,0-0.9,0.7-1C128.8,68.6,128.6,68.9,128.2,69.2z"/>
<path class="st0" d="M148.4,68.1c0.3,0.2,0.6,0.4,0.8,0.6c0,0-0.2,0.3-0.3,0.5C148.6,68.9,148.4,68.6,148.4,68.1z"/>
<path class="st0" d="M172.9,71.6c-0.3-0.2-0.6-0.3-0.9-0.5c0.1-0.1,0.2-0.3,0.4-0.4C172.8,70.8,172.9,71.2,172.9,71.6z"/>
<path class="st0" d="M102.3,71.9c0.5,0.8-0.1,0.9-0.7,1C101.7,72.5,101.9,72.2,102.3,71.9z"/>
<path class="st0" d="M150.8,71.9c0.3,0.2,0.6,0.4,0.9,0.5c-0.1,0.2-0.2,0.3-0.3,0.5C151.1,72.7,150.9,72.4,150.8,71.9z"/>
<path class="st0" d="M174,73c-0.4-0.5-0.8-1-1.2-1.5C173.2,72,173.6,72.5,174,73z"/>
<path class="st0" d="M124.4,74.2c-0.6-0.9,0.1-0.9,0.7-1C125,73.6,124.8,74,124.4,74.2z"/>
<path class="st0" d="M153.3,75.7c0.6,0.1,1.2,0.2,0.6,1C153.6,76.5,153.4,76.1,153.3,75.7z"/>
<path class="st0" d="M176.6,76.7c-0.6-0.1-1.1-0.3-0.6-1C176.4,76,176.6,76.3,176.6,76.7z"/>
<path class="st0" d="M98.4,76.9c0.1,0.2,0.2,0.3,0.3,0.5c-0.3,0.2-0.6,0.3-0.9,0.5C97.9,77.5,98.1,77.2,98.4,76.9z"/>
<path class="st0" d="M98.1,77.9c-0.4,0.5-0.9,0.9-1.3,1.4C97.2,78.8,97.6,78.3,98.1,77.9z"/>
<path class="st0" d="M120.6,79.2c-0.5-0.9,0.1-0.9,0.7-1C121.2,78.7,120.9,79,120.6,79.2z"/>
<path class="st0" d="M155.9,79.5c0.3,0.2,0.6,0.4,0.9,0.5c-0.1,0.2-0.2,0.3-0.3,0.5C156.1,80.3,155.9,79.9,155.9,79.5z"/>
<path class="st0" d="M179.2,80.5c-0.6-0.1-1.1-0.3-0.6-1C178.9,79.7,179.1,80.1,179.2,80.5z"/>
<path class="st0" d="M94.6,82c0.1,0.2,0.2,0.3,0.4,0.5c-0.3,0.2-0.6,0.3-0.9,0.5C94.1,82.5,94.2,82.2,94.6,82z"/>
<path class="st0" d="M94.3,82.9c-0.5,0.5-0.9,1-1.4,1.4C93.3,83.8,93.8,83.3,94.3,82.9z"/>
<path class="st0" d="M116,84.7c0.5-0.5,0.9-1,1.4-1.4C117,83.7,116.5,84.2,116,84.7z"/>
<path class="st0" d="M158.5,83.3c0.3,0.2,0.6,0.4,0.8,0.6c0,0-0.2,0.3-0.3,0.5C158.7,84,158.5,83.7,158.5,83.3z"/>
<path class="st0" d="M181.8,84.3c-0.6-0.1-1.2-0.2-0.6-1C181.6,83.5,181.8,83.8,181.8,84.3z"/>
<path class="st0" d="M115.7,85.6c-0.1-0.2-0.3-0.3-0.4-0.5c0.3-0.2,0.6-0.3,0.9-0.4C116.2,85.1,116.1,85.4,115.7,85.6z"/>
<path class="st0" d="M161,87.1c0.6,0.1,1.1,0.3,0.6,1C161.3,87.8,161.1,87.5,161,87.1z"/>
<path class="st0" d="M89.6,88.3c0.1,0.2,0.2,0.3,0.3,0.5c-0.3,0.2-0.6,0.3-0.9,0.5C89.1,88.8,89.3,88.5,89.6,88.3z"/>
<path class="st0" d="M112.2,89.7c0.4-0.5,0.9-1,1.3-1.4C113.1,88.8,112.7,89.2,112.2,89.7z"/>
<path class="st0" d="M185.5,89.3c-0.6-0.1-1.1-0.2-0.6-1C185.2,88.6,185.4,88.9,185.5,89.3z"/>
<path class="st0" d="M89.2,89.2c-0.5,0.5-1,0.9-1.4,1.4C88.3,90.1,88.8,89.7,89.2,89.2z"/>
<path class="st0" d="M111.8,90.6c-0.1-0.2-0.2-0.3-0.3-0.5c0.3-0.2,0.6-0.3,0.9-0.5C112.4,90.1,112.2,90.4,111.8,90.6z"/>
<path class="st0" d="M163.6,90.8c0.6,0.1,1.1,0.3,0.5,1C163.8,91.6,163.6,91.2,163.6,90.8z"/>
<path class="st0" d="M43,93.1c-0.6-0.1-1.1-0.3-0.6-1C42.7,92.4,42.9,92.7,43,93.1z"/>
<path class="st0" d="M22.4,94.6c0.2,0.2,0.5,0.5,0.7,0.7c0,0-0.2,0.3-0.4,0.4C22.4,95.4,22.3,95,22.4,94.6z"/>
<path class="st0" d="M124.9,185.2c-0.3-0.2-0.5-0.4-0.8-0.6c0.1-0.1,0.3-0.3,0.4-0.4C124.8,184.4,124.9,184.8,124.9,185.2z"/>
<path class="st0" d="M114.8,186.7c0.1,0.3,0.2,0.6,0.2,0.9c0,0.1-0.3,0.1-0.5,0.2C114.4,187.3,114.5,187,114.8,186.7z"/>
<path class="st0" d="M126,187.8c-0.2-0.2-0.5-0.5-0.7-0.7c0,0,0.2-0.3,0.3-0.4C126,187,126.1,187.4,126,187.8z"/>
<path class="st0" d="M113.6,189.2c0.1,0.3,0.2,0.6,0.2,0.9c0,0.1-0.3,0.2-0.5,0.2C113.2,189.9,113.3,189.5,113.6,189.2z"/>
<path class="st0" d="M119.4,190.3c0-0.3-0.1-0.6,0-0.9c0-0.1,0.4-0.1,0.6-0.1C119.9,189.7,119.7,190,119.4,190.3z"/>
<path class="st0" d="M127.2,190.3c-0.2-0.2-0.4-0.5-0.6-0.7c0,0,0.2-0.3,0.3-0.4C127.2,189.5,127.3,189.9,127.2,190.3z"/>
<path class="st0" d="M62,36.3c-0.5-0.4-1.1-0.7-1.6-1.1C61,35.5,61.5,35.9,62,36.3z"/>
<path class="st0" d="M129.6,36.1c-0.5,0.5-0.9,1-1.4,1.5C128.6,37.1,129.1,36.6,129.6,36.1z"/>
<path class="st0" d="M118.2,192.8c-0.1-0.3-0.2-0.6-0.2-0.9c0-0.1,0.3-0.1,0.5-0.2C118.6,192.1,118.5,192.5,118.2,192.8z"/>
<path class="st0" d="M122,191.7c0.2,0.2,0.5,0.4,0.7,0.7c-0.1,0.1-0.3,0.3-0.4,0.4C122.1,192.5,122,192.1,122,191.7z"/>
<path class="st0" d="M150.4,37.5c-0.6,0-1.3,0-0.8-0.9C150,36.8,150.3,37.1,150.4,37.5z"/>
<path class="st0" d="M117,195.4c-0.9-0.8-0.3-1,0.4-1.1C117.4,194.7,117.3,195.1,117,195.4z"/>
<path class="st0" d="M123.1,194.3c0.8,0.1,1.4,0.2,0.5,1.1C123.2,195.1,123.1,194.7,123.1,194.3z"/>
<path class="st0" d="M129.9,196.6c-0.2-0.2-0.5-0.4-0.7-0.7c0.1-0.1,0.3-0.3,0.4-0.4C129.8,195.8,129.9,196.2,129.9,196.6z"/>
<path class="st0" d="M152.9,41.4c-0.3-0.2-0.6-0.3-0.9-0.5c0.1-0.2,0.2-0.3,0.3-0.5C152.6,40.6,152.8,41,152.9,41.4z"/>
<path class="st0" d="M40,41.2c-0.1,0.6-0.2,1.2-1,0.5C39.3,41.4,39.6,41.2,40,41.2z"/>
<path class="st0" d="M109.7,198c0.1,0.3,0.2,0.6,0.2,0.9c0,0.1-0.3,0.1-0.5,0.2C109.4,198.7,109.5,198.3,109.7,198z"/>
<path class="st0" d="M131.1,199.1c-0.2-0.2-0.5-0.5-0.6-0.7c0,0,0.2-0.3,0.3-0.4C131,198.4,131.1,198.7,131.1,199.1z"/>
<path class="st0" d="M125,41.6c0.5,0.8,0,0.9-0.6,1C124.5,42.2,124.7,41.9,125,41.6z"/>
<path class="st0" d="M108.6,200.6c0.1,0.3,0.2,0.6,0.2,0.9c0,0.1-0.3,0.2-0.5,0.2C108.2,201.3,108.3,200.9,108.6,200.6z"/>
<path class="st0" d="M114.4,201.6c-0.1-0.3-0.2-0.6-0.2-0.9c0-0.1,0.3-0.2,0.5-0.2C114.7,200.9,114.6,201.3,114.4,201.6z"/>
<path class="st0" d="M125.9,200.5c0.2,0.2,0.5,0.5,0.6,0.7c0,0-0.2,0.3-0.4,0.4C125.9,201.3,125.8,200.9,125.9,200.5z"/>
<path class="st0" d="M113.2,204.2c-0.4,0-0.7,0-1.1,0c0.5-0.4,1-0.8,1.5-1.1C113.6,203.5,113.4,203.9,113.2,204.2z"/>
<path class="st0" d="M128.4,204.2c-0.3,0-0.7,0-1,0c-0.3-0.3-0.4-0.7-0.4-1.1C127.4,203.5,127.9,203.9,128.4,204.2z"/>
<path class="st0" d="M36.3,43.8c-0.5,0.5-0.9,0.9-1.4,1.4C35.3,44.7,35.8,44.2,36.3,43.8z"/>
<path class="st0" d="M155.3,45.1c-0.3-0.2-0.6-0.4-0.9-0.5c0.1-0.2,0.2-0.3,0.3-0.5C155.1,44.4,155.3,44.7,155.3,45.1z"/>
<path class="st0" d="M33.9,46.5c0-0.3,0-0.5,0-0.8c0.4-0.2,0.7-0.4,1.1-0.6C34.6,45.5,34.2,46,33.9,46.5z"/>
<path class="st0" d="M122.3,45.4c0.1,0.1,0.3,0.3,0.4,0.4c-0.3,0.2-0.6,0.3-0.9,0.5C121.8,45.9,122,45.6,122.3,45.4z"/>
<path class="st0" d="M45.3,118.3c0.6-0.7,0.9-0.3,1.1,0.4C45.9,118.7,45.6,118.6,45.3,118.3z"/>
<path class="st1" d="M190.4,117c0.6-0.6,0.9-0.4,1.1,0.3C191.1,117.3,190.7,117.2,190.4,117z"/>
<path class="st0" d="M42.7,117.1c0.9-0.9,1-0.2,1,0.5C43.4,117.6,43,117.4,42.7,117.1z"/>
<path class="st0" d="M187.8,115.8c0.7-0.7,0.9-0.3,1.1,0.4C188.5,116.2,188.1,116.1,187.8,115.8z"/>
<path class="st0" d="M40.3,115.8c0.8-0.7,0.9-0.1,1,0.5C40.9,116.2,40.5,116.1,40.3,115.8z"/>
<path class="st0" d="M185.3,114.5c0.7-0.6,0.9-0.2,1,0.4C186,114.9,185.6,114.8,185.3,114.5z"/>
<path class="st0" d="M37.4,113.6c0.5,0.4,1,0.8,1.5,1.2C38.4,114.4,37.9,114,37.4,113.6z"/>
<path class="st0" d="M90.7,113.7c0.1-0.6,0.3-1.1,1-0.6C91.5,113.4,91.2,113.6,90.7,113.7z"/>
<path class="st0" d="M132,64.1c-0.6-0.9,0-0.9,0.7-1C132.6,63.5,132.3,63.9,132,64.1z"/>
<path class="st0" d="M36.5,113.2c0.8-0.6,0.9-0.1,1,0.5C37,113.7,36.7,113.5,36.5,113.2z"/>
<path class="st0" d="M181.5,112c1.1-0.9,0.9,0.1,1,0.7C182.1,112.6,181.8,112.3,181.5,112z"/>
<path class="st0" d="M176.2,107.2c0.5,0.5,0.9,1,1.4,1.5C177.1,108.2,176.6,107.7,176.2,107.2z"/>
<path class="st0" d="M122,46.3c-0.5,0.5-0.9,1-1.4,1.4C121.1,47.2,121.5,46.8,122,46.3z"/>
<path class="st0" d="M174.8,106c0.5,0.5,1,0.9,1.5,1.4C175.8,106.9,175.3,106.4,174.8,106z"/>
<path class="st0" d="M27.2,103.5c0.6,0.1,1.2,0.2,0.7,1C27.5,104.2,27.2,103.9,27.2,103.5z"/>
<path class="st0" d="M157.9,48.9c-0.3-0.2-0.6-0.3-0.9-0.5c0.1-0.2,0.2-0.3,0.3-0.5C157.6,48.2,157.8,48.5,157.9,48.9z"/>
<path class="st0" d="M29.9,50.1c-0.5,0.5-1,0.9-1.5,1.4C28.9,51,29.4,50.5,29.9,50.1z"/>
<path class="st0" d="M56.5,102.2c-0.5,0.7-0.9,0.5-1.2-0.2C55.8,102,56.2,102,56.5,102.2z"/>
<path class="st0" d="M171,101c0.3,0.2,0.6,0.3,0.9,0.5c-0.1,0.2-0.2,0.3-0.3,0.5C171.2,101.8,171,101.4,171,101z"/>
<path class="st0" d="M102.8,102.1c-0.2,0-0.5,0-0.7,0c0.5-0.4,1-0.7,1.5-1.1C103.4,101.3,103.1,101.7,102.8,102.1z"/>
<path class="st0" d="M118.5,50.4c0.1,0.1,0.3,0.3,0.4,0.4c-0.3,0.2-0.6,0.3-0.9,0.5C118,51,118.2,50.6,118.5,50.4z"/>
<path class="st0" d="M118.2,51.3c-0.5,0.5-0.9,1-1.4,1.4C117.3,52.3,117.8,51.8,118.2,51.3z"/>
<path class="st0" d="M199,99.8c-0.5,0.6-0.9,0.3-1.1-0.3C198.3,99.5,198.7,99.6,199,99.8z"/>
<path class="st0" d="M169.9,99.6c0.4,0.5,0.9,1,1.3,1.4C170.8,100.6,170.3,100.1,169.9,99.6z"/>
<path class="st0" d="M77.9,99.3c-0.1,0.7-0.4,1.1-1,0.4C77.1,99.5,77.5,99.3,77.9,99.3z"/>
<path class="st0" d="M160.4,52.7c-0.6-0.1-1.2-0.2-0.6-1C160.1,52,160.3,52.3,160.4,52.7z"/>
<path class="st0" d="M26.4,54.2c0.9,1.1,0,0.9-0.7,1C25.9,54.8,26.1,54.5,26.4,54.2z"/>
<path class="st0" d="M24.8,99.7c0.3,0.2,0.5,0.4,0.8,0.6c-0.1,0.1-0.2,0.3-0.3,0.4C25,100.4,24.8,100.1,24.8,99.7z"/>
<path class="st0" d="M50.4,57c0.1-0.7,0.3-1.2,1-0.5C51.2,56.8,50.8,56.9,50.4,57z"/>
<path class="st0" d="M48.9,98.7c-0.7,0.5-0.9,0-1.1-0.6C48.3,98.1,48.6,98.3,48.9,98.7z"/>
<path class="st0" d="M194,97.3c-0.8,0.6-0.9,0.1-1-0.6C193.3,96.8,193.7,97,194,97.3z"/>
<path class="st0" d="M81.7,96.8c-0.1,0.6-0.3,1.1-1,0.6C80.9,97.1,81.3,96.9,81.7,96.8z"/>
<path class="st0" d="M114.7,55.5c0.1,0.1,0.3,0.3,0.4,0.4c-0.3,0.2-0.6,0.3-0.9,0.5C114.2,56,114.4,55.7,114.7,55.5z"/>
<path class="st0" d="M23.5,97.2c0.3,0.2,0.5,0.4,0.8,0.6c-0.1,0.1-0.2,0.3-0.4,0.4C23.6,97.9,23.5,97.6,23.5,97.2z"/>
<path class="st0" d="M167.2,95.9c0.6,0.1,1.2,0.2,0.6,1C167.5,96.7,167.3,96.3,167.2,95.9z"/>
<path class="st0" d="M108,95.6c-0.5-0.9,0.1-0.9,0.7-1C108.6,95.1,108.3,95.4,108,95.6z"/>
<path class="st0" d="M162.9,56.5c-0.6-0.1-1.2-0.2-0.6-1C162.6,55.8,162.8,56.1,162.9,56.5z"/>
<path class="st0" d="M114.4,56.4c-0.5,0.5-0.9,1-1.4,1.4C113.5,57.3,114,56.9,114.4,56.4z"/>
<path class="st0" d="M37.8,78.7c-0.3,0.6-0.6,1.3-0.9,1.9c-0.2-0.6-0.5-1.2-0.5-1.7c0.1-0.7,0.4-1.4,0.7-2.1
	C37.3,77.4,37.5,78,37.8,78.7z"/>
<path class="st0" d="M142.4,59.1c0.1-0.2,0.2-0.3,0.3-0.5C142.6,58.8,142.5,59,142.4,59.1C142.4,59.1,142.4,59.1,142.4,59.1z"/>
<rect x="250.5" y="102.7" class="st2" width="17.9" height="17.9"/>
<text transform="matrix(0.9771 0 0 1 46.0297 205.1401)" class="st0 st3 st4">O</text>
<g>
	<text transform="matrix(1 0 0 1 48.8862 170.7006)" class="st0 st5 st4">A</text>
</g>
<g>
	<text transform="matrix(1 0 0 1 92.4301 170.7016)" class="st0 st5 st4">A</text>
</g>
<g>
	<text transform="matrix(0.9771 0 0 1 164.373 205.558)" class="st0 st3 st4">D</text>
</g>
<g>
	<text transform="matrix(0.9771 0 0 1 218.5473 205.558)" class="st0 st3 st4">S</text>
</g>
<g>
	<text transform="matrix(0.9771 0 0 1 73.6264 205.8188)" class="st0 st3 st4">S</text>
</g>
<g>
	<text transform="matrix(0.9771 0 0 1 191.6645 205.1391)" class="st0 st3 st4">E</text>
</g>
<g>
	<text transform="matrix(1 0 0 1 77.9126 170.7016)" class="st0 st5 st4">J</text>
</g>
<text transform="matrix(1 0 0 1 21.6396 171.9623)" class="st0 st5 st4">C</text>
<g>
	<text transform="matrix(0.9771 0 0 1 137.8833 205.8188)" class="st0 st3 st4">N</text>
</g>
<g>
	<text transform="matrix(0.9771 0 0 1 25.1855 204.5571)" class="st0 st3 st4">L</text>
</g>
</svg>
