<?xml version="1.0" encoding="utf-8"?>
<!-- Generator: Adobe Illustrator 19.2.1, SVG Export Plug-In . SVG Version: 6.00 Build 0)  -->
<svg version="1.1" id="Capa_1" xmlns="http://www.w3.org/2000/svg" xmlns:xlink="http://www.w3.org/1999/xlink" x="0px" y="0px"
	 viewBox="0 0 276 250" style="enable-background:new 0 0 276 250;" xml:space="preserve">
<style type="text/css">
	.st0{fill:#3FFE11;}
	.st1{fill:#00DFFA;}
	.st2{fill:#797878;}
</style>
<path class="st0" d="M187.7,79.8c0.5,0.1,1,0.1,1.5,0.2c4.1,2.2,8.3,4.3,12.4,6.5c0,0,0,0,0,0c1.6,1.6,3.1,3.1,4.7,4.7
	c0.2,0.9,0.8,1.5,1.6,1.9c1.6,3.2,3.2,6.4,4.8,9.6c-0.1,0.2-0.1,0.4,0.1,0.6c0.6,3.1,1.1,6.3,1.7,9.4c0,1.5,0,3,0,4.5
	c-1.7,5.2-1.3,11-4.8,15.6c-1.7-0.3-3.4-0.6-5-0.9c1.9-7.8,3-15.6-0.2-23.3c-5-11.8-14-18.5-26.9-18.7c-14.7-0.2-26.2,6-33.9,18.9
	c-4.3,4.7-5.3,10.7-6.1,16.6c-2.6,19.7,13.5,33,29.1,33.1c12,0.1,21.5-4.9,29.6-13.3c1.7,0,3.3,0,5-0.1c-1.7,4.6-6.9,5.6-9.5,9.2
	c-1.6,0.1-2.8,1.1-4.1,1.9c-2.8,1.1-5.7,2.2-8.5,3.3c-1.2,0.2-2.4,0.5-3.6,0.7c-5,0.4-9.9,0.4-14.9,0c-1.7-0.4-3.4-0.8-5.1-1.2
	c-0.5-0.2-0.9-0.5-1.4-0.7c-3-1.1-5.3-3.7-8.7-4.1c-1.3-3-4.2-4.7-6.3-7.1c0,0-0.1-0.1-0.1-0.1c-0.3-0.3-0.6-0.6-0.8-0.9
	c-0.2-0.4-0.4-0.8-0.6-1.1c-1.6-3.7-3.1-7.4-4.7-11.2c-0.1-0.9-0.3-1.8-0.4-2.7c0.1-1.6,0.2-3.2-0.5-4.8c0-1.5,0-2.9,0-4.4
	c0.6-1.2,0.7-2.5,0.4-3.8c0.2-1.2,0.4-2.5,0.6-3.7c2.5-5.6,4.9-11.2,7.4-16.7c4.6-3.6,8-8.7,13.3-11.5c5.1-2.8,10.4-5.1,16.8-7
	c-3.1-2-5.5-3.5-7.9-5.1c0,0,0,0.1,0,0.1c-0.3-0.3-0.7-0.6-1-1c0,0,0.1,0.1,0.1,0.1c-0.3-0.3-0.7-0.6-1-1c0,0,0.1,0,0.1,0
	c-4.2-6.7-7-13.8-5.8-22c0.8-5.7,3.2-10.5,8.5-13.1c5.6-2.7,10.9-1,15.6,2.7c3.9,3.1,5.9,7.5,8.4,11.5l-0.2,0.2c0,0,0.1,0.2,0.1,0.2
	c0.2,0.7,0.4,1.3,0.7,2c0.2,0.9,0.4,1.8,0.6,2.7c0,2.5,0,4.9,0,7.4c-0.3,1.2-0.5,2.4-0.8,3.6c-1.4,5-5.1,8.2-9.3,11.1
	c0.2,0.4,0.3,0.8,0.5,1.2C182,79.8,184.9,79.8,187.7,79.8z"/>
<path class="st1" d="M153.9,86.2c-5.3,2.8-8.7,7.9-13.3,11.5c-1.3-1.6-2.4-3.3-3.8-4.7c-6.2-6.4-13.1-11.3-22.6-11
	c-2-3.6-5.3-4.9-9.3-5c-8.4-0.1-13.7,4.8-15.6,14.7c-0.6,0.2-1.3,0.1-1.7,0.5c-13.2,12.9-19.8,28.5-19.2,47c0,1.6-0.1,3.3-0.1,4.9
	c-0.4,4.2,0.3,8.3,1.5,12.2c0,0.5-0.1,1.1-0.1,1.6c-0.8,1.4-0.1,2,1.2,2.3c0,0-0.1,0-0.1,0c-0.4,2-1.2,3.5-2.8,0.9
	c-1.6-2.5-2.8-5.3-4.2-8c0.1-0.2,0-0.4-0.2-0.5c-0.4-2.5-1.4-4.7-2.6-6.9c0.1-0.2,0.1-0.4-0.1-0.5c-0.8-4.1-1.7-8.2-2.5-12.2
	c-0.1-1.2-0.3-2.4-0.4-3.7c0-3.7,0-7.4,0-11.1c0.2-1.2,0.3-2.4,0.5-3.6c0.5-2.5,0.9-5.1,1.4-7.6c0.2-0.6,0.3-1.2,0.5-1.8
	c0.9-2.3,1.8-4.6,2.6-6.9c3.7-10,10.4-18.1,17.1-26.2c0,0,0.2-0.2,0.2-0.2c1.7-1.3,3.4-2.6,5.2-3.8c16.1-11.7,33-17,51.9-6.4
	c0.6,0.5,1.3,1,1.9,1.4c0.4,0.3,0.7,0.6,1.1,0.9c0,0,0,0,0,0c1.5,1.6,3.1,3.1,4.6,4.7c0,0,0,0,0,0c0.3,0.3,0.6,0.7,0.9,1
	c0,0,0,0,0,0c0.3,1.2,0.9,2.1,1.9,2.8c0,0,0,0,0,0C149.7,77,151.8,81.6,153.9,86.2z"/>
<path class="st1" d="M107.7,52.3c-0.9-0.8-1.8-1.6-2.7-2.4c-5.3-7-6.7-14.7-3.9-23.1c2.6-7.7,8.1-12.9,14.9-16.9c0,0,0,0,0,0
	c1.4-0.3,2.7-0.7,4.1-0.9c12.3-2.4,22.7,5.8,23.3,18.4c0.4,7.6-2.6,13.9-6.8,19.8c0,0,0,0,0,0C127.9,55.2,118.6,58.2,107.7,52.3z"/>
<path class="st2" d="M201.3,145.1c-1.7,0-3.3,0-5,0.1c-2.5-0.1-4.9,0-7.4-0.2c-15.9-0.9-30.3-5.4-41.2-18
	c-5.8-6.7-4.7-14.6,2.9-19.1c6.2-0.5,11.8,0.6,16,5.6c4.3,5.1,2.7,11.1-3.5,13.4c-1.4,0.5-3.3,0-4,2.4c8.6,3.4,17.6,4.3,26.8,3.4
	c6.3-0.7,12.6-1.7,19-0.8c1.7,0.3,3.4,0.6,5,0.9c2.3,1.4,4.6,2.8,6.9,4.1c0.1,0.3,0.3,0.6,0.6,0.6c1.5,1.8,2.3,3.3-1,4
	c-1.8,0.4-3.5,1.1-5.2,1.7c-0.9,0.1-1.9,0.2-2.8,0.3c-0.5,0.2-0.9,0.4-1.4,0.6l-0.2-0.1c0,0-0.2,0.2-0.2,0.2
	C204.6,144,202.8,144,201.3,145.1z"/>
<path class="st2" d="M235.3,218c-12.2-2.8-15.7-10.9-9.9-22.2c2.6-5,6.8-8.3,11.2-11.5c0.3,0,0.5-0.1,0.7-0.3c4.4-2,9.2-2.8,13.8-4
	c0.9,0,1.9-0.1,2.8-0.1c1.2,0.1,2.5,0.3,3.7,0.3c3,0,6.7,0.2,8.8,1.4c2.9,1.7-1,5.4-0.3,8.3c-1.1,2.8-2,5.7-2.1,8.7
	c-0.2,0.5-0.4,1-0.6,1.5c-0.2,0.9-0.4,1.8-0.6,2.7c-0.5,1.6-0.8,3.2-1.4,4.7c-1.4,3.1-0.1,7-2.9,9.7c-0.6,0.1-1.1,0.1-1.7,0.2
	c-4.3-1-2.4-5.1-3.5-7.9c-2.6,3.1-5.6,5.2-8.9,6.9c-0.6,0.2-1.2,0.5-1.7,0.7c-0.8-0.1-1.6-0.1-2.3,0.6
	C238.7,217.9,237,217.9,235.3,218z M253.3,185.2c-12.1,0.2-22.2,9.5-21.8,20.1c0.2,4.8,2.8,7.4,7.7,7.2c7.9-0.4,12.5-5.5,15.5-12.2
	c1.3-2.9,1.7-6.3,2.8-9.3C259.4,185.6,259.2,185.2,253.3,185.2z"/>
<path class="st2" d="M20.9,211.4c-0.1,0.6-0.3,1.2-0.4,1.8c-1.2,4.3-2.5,8.6-3.4,12.9c-0.6,2.6-1.3,4.5-4.4,3.8
	c-3.1-0.8-4.2-2.8-3.3-5.9c1.1-4.2,2-8.4,3-12.6c0.1-0.5,0.2-0.9,0.2-1.4c0.7-0.6,0.8-1.5,0.7-2.4c0.2-0.2,0.3-0.5,0.1-0.8
	c2.9-9.3,5.1-18.7,7.2-28.2c0.1-0.6,0.2-1.2,0.3-1.8c1.7-3.1,1.3-7.8,6.2-8.6c0.4-0.1,0.7-0.2,1.1-0.3c0.3-0.2,0.7-0.3,1-0.5
	c0.6,0,1.2,0,1.9,0c2.2,0,4.4,0,6.5,0c0.9,0,1.9,0,2.8,0c3.4,0.1,6.9,0.3,10.3,0.4c0.3,0.4,0.5,0.4,0.8,0c1.8-0.1,3.5-0.2,5.3-0.2
	c0.4,2.3-0.8,4-2.4,5.4c-0.6,0-1.3,0.1-1.9,0.1c-5.4-0.1-10.8-0.2-16.2-0.1c-3.9,0-6.4,2-7.3,5.8c-1,4-2,8.1-3.2,12.1
	c-0.6,2.1-0.1,2.9,2.1,2.8c4.5-0.1,8.9-0.2,13.4-0.2c0.6,0,1.3,0,1.9,0c0.8,0.1,1.5,0.1,2.3,0.2c1.1,0.2,2.8-0.7,3,1.1
	c0.2,1.4-0.5,2.7-1.8,3.5c-1.1,0.8-2.2,0.9-3.5,0.9c-2.8,0-5.5,0-8.3,0c-11.2,0-11.2,0-13.9,10.7C20.8,210.5,20.9,211,20.9,211.4z"
	/>
<path class="st2" d="M146.6,211.4c-3.8-13,6.1-24.7,17.7-28.8c2.2-0.8,4.4-1.3,6.6-1.9c0.6-0.1,1.2-0.2,1.8-0.3
	c1.5,0.6,2.7,1.9,4.6,1.5c4.4-1,8.8-0.5,13.2-0.4c0.1,0.4,0.2,0.7,0.3,1.1c-3.1,11.6-6.6,23.2-8.3,35.1c0,0-0.2-0.1-0.2-0.1
	s-0.2,0.2-0.2,0.2c-4.2-0.5-7.1-2-5.7-7.2c-2.8,0.8-4,3-5.6,4.5c-0.3,0-0.6,0.1-0.8,0.4c-0.3,0.2-0.6,0.4-0.9,0.6c0,0,0,0,0,0
	c-1.7,0.6-3.3,1.2-5,1.8c-0.5,0.1-1,0.1-1.6,0.2c-6.2,0.4-11.7-0.9-15.7-6.1C146.9,211.7,146.9,211.5,146.6,211.4z M162.8,212.7
	c1.9,0,4.2-0.8,6.3-2.1c8.6-5.3,10-14.3,12.1-23.1c0.3-1.4-0.6-1.9-1.9-2c-12.1-1.4-24.1,6.9-25.1,18.7
	C153.8,209.6,156.9,212.7,162.8,212.7z"/>
<path class="st2" d="M97.5,216.2c3-7.6,2.6-15.9,5.3-23.5c0.9-2.6,2.5-4.9,2.5-7.8c0-4.2,2.5-5.4,6.1-4.5c4,1,0.2,3.8,0.9,5.5
	c1.8,0.9,2.7-0.5,3.7-1.2c4.7-3.2,9.8-4.6,15.4-4.1c7.2,0.6,10.7,4.7,9.8,11.8c-0.6,4.9-1.9,9.7-2.9,14.5c-0.1,0.4-0.2,0.9-0.2,1.3
	c-0.7,0.7-0.8,1.5-0.7,2.4c-0.2,0.6-0.3,1.2-0.5,1.7c-0.1,0.7-0.2,1.3-0.4,2c-0.1,0.5-0.2,1-0.3,1.4c-0.2,0.4-0.4,0.9-0.7,1.3
	c-0.4,0.3-0.7,0.6-1.1,0.9c-6.5-1.5-6.9-2.1-5.3-8.4c0.4-1.5,0.6-3,0.9-4.5c0.4-0.4,0.5-0.8,0.1-1.2c1-1.6,1.8-3.3,1.5-5.3
	c0.2-0.2,0.3-0.4,0.2-0.7c1.2-1.6,1.1-3.5,1.1-5.3c0-3.1-0.5-6-4.6-5.9c-0.5-0.1-1.1-0.2-1.7-0.3c-0.7-0.7-1.3-0.7-2,0
	c-0.8,0.1-1.5,0.2-2.3,0.3c-0.4,0.2-0.8,0.4-1.1,0.6c0,0,0-0.1,0-0.1c-2,0.4-3.6,1.3-4.9,2.9c-0.2,0.2-0.4,0.4-0.7,0.6
	c-7.4,6.7-7.1,16.2-9.2,24.8c-0.2,0.2-0.3,0.4-0.1,0.6c-0.2,0.4-0.4,0.8-0.6,1.3c-0.2,0.1-0.4,0.2-0.3,0.5c-2.6,0.1-5.2,0.2-7.8,0.3
	C97.6,217.2,97.6,216.7,97.5,216.2z"/>
<path class="st2" d="M84.1,180.4c6.5,2,12.1,5.2,13,12.7c0.9,8.3-2.8,14.6-9.2,19.5c-3.1,2.4-6.8,3.6-10.4,4.8
	c-4,0.4-7.9,0.5-11.9,0c-2.2-0.9-4.4-1.8-6.6-2.7c-0.1-0.3-0.3-0.4-0.6-0.4c-4.3-4-6-8.8-5.1-14.6c0.5-3.1,2.2-5.8,3.2-8.7
	c0,0,0,0,0,0c0.5-0.5,1.1-1,1.6-1.6c5.1-5.5,10.8-9.3,18.9-8.3c1.7,0.2,4,1.3,5.4-1.1C82.8,180.2,83.5,180.3,84.1,180.4z
	 M71.8,212.6c9,0.2,17.2-8.2,17.1-17.3c-0.1-5.7-3.7-9.5-9.5-10c-8.6-0.7-16.2,5.8-17.7,15C60.4,207.5,64.5,212.4,71.8,212.6z"/>
<path class="st2" d="M157.8,237.2c-0.9-0.4-1.8-0.4-2.8,0c-1.9-0.2-3.9-0.4-5.8-0.6c0-2.2,0-4.4,0-6.5c0,0,0.2-0.3,0.2-0.3
	c1.1,0,2.2,0.1,3.3,0.1c34.4,0,68.7,0,103.1,0c3.3,0,5.3,0.3,4.8,4.4c-0.4,3.7-3,2.5-4.8,2.5c-30,0.1-60,0-90,0
	C163.1,236.9,160.5,237.1,157.8,237.2z"/>
<path class="st2" d="M81.1,154.2c-2.9-1.9-3.2-5.2-4-8c-6.2-21.9,7.6-40.3,30.3-40.5c7.5-0.1,14.7,1.4,21.8,5.6
	c-1.4,0.3-2.3,0.5-3.2,0.7c-1.3,0-2.5-0.1-3.8-0.1c-1.2-0.4-2.4-0.3-3.7,0c-0.6,0-1.3,0-1.9,0.1c-1-0.2-2-0.3-2.9,0.4
	c-0.6,0.1-1.2,0.3-1.8,0.4c-7.4,1.3-13.8,4.5-18.9,10c-0.3,0.3-0.6,0.5-0.8,0.8c-5.1,4.2-7.9,9.8-9.8,15.9
	c-1.1,3.6-2.6,7.2-0.9,11.1C80.6,151.5,80.9,152.9,81.1,154.2z"/>
<path class="st2" d="M149.3,230.1c0,2.2,0,4.4,0,6.5c0,0-0.1,0.4-0.1,0.4c-0.5,0.1-1,0.1-1.5,0.2c-1.5-0.1-3.1-0.3-4.6-0.3
	c-27.1,0-54.3,0-81.4,0c-2.6,0-3.9-0.4-3.9-3.5c0-3,1-3.6,3.8-3.6c7.1,0.2,14.3,0.1,21.4,0.1c21.6-0.1,43.1-0.1,64.7-0.2
	C148.1,229.8,148.7,230,149.3,230.1z"/>
<path class="st2" d="M205.3,187c-3.7,2.5-2.8,5.1,0.2,7.3c1.8,1.3,4.1,2.1,6.1,3.2c3.5,1.9,6.6,4.5,6.4,8.8
	c-0.1,4.6-2.9,7.7-7.1,9.4c-2.4,1-4.9,1.6-7.4,2.3c-1.6,0-3.1,0.1-4.7,0.1c-0.6,0-1.3,0-1.9,0c-0.9-0.3-1.9-0.6-2.8-0.9
	c-0.6-1.5-1.6,0.3-2.2-0.3c-1-1-3.6-0.6-2.8-3.2c0.7-2.6,2.3-2,4.2-1.5c4.6,1.4,9.3,1.8,13.6-1c3.7-2.4,3.8-6.1,0.2-8.7
	c-1.5-1.1-3.3-1.7-4.9-2.6c-4.1-2.1-8-4.4-7.3-10.1c0.6-4.3,4.7-8.3,10.1-8.9c4.1-0.5,8.4,0.1,12.5,0.3c2,0.1,3.4,0.7,2.8,3.1
	c-0.5,2.1-2,1.8-3.6,1.4C212.8,185,208.8,184.2,205.3,187L205.3,187z"/>
<path class="st2" d="M51.4,168c-0.3,0.4-0.5,0.4-0.8,0C50.9,167.8,51.1,167.8,51.4,168z"/>
<path class="st2" d="M27,168.3c0.1-0.2,0.2-0.5,0.2-0.7c0.3,0.1,0.6,0.3,0.9,0.4C27.8,168.1,27.4,168.2,27,168.3z"/>
<path class="st2" d="M114.2,82c3,7.9,1.3,15.2-4.8,20c-4.2,3.3-8.9,4.5-13.9,2.1c-5.1-2.4-6.6-7-6.3-12.4
	c1.9-9.9,7.2-14.9,15.6-14.7C108.8,77.1,112.1,78.4,114.2,82z"/>
</svg>
