<?xml version="1.0" encoding="utf-8"?>
<!-- Generator: Adobe Illustrator 19.2.1, SVG Export Plug-In . SVG Version: 6.00 Build 0)  -->
<svg version="1.1" id="Capa_1" xmlns="http://www.w3.org/2000/svg" xmlns:xlink="http://www.w3.org/1999/xlink" x="0px" y="0px"
	 viewBox="0 0 276 250" style="enable-background:new 0 0 276 250;" xml:space="preserve">
<style type="text/css">
	.st0{fill:#00DFFA;}
	.st1{fill:#797878;}
	.st2{fill:#FFFFFF;}
</style>
<path class="st0" d="M142.3,10.9c25.4,0.5,47.9,8.4,65.1,27.9c18.4,20.9,18.4,50.6-0.1,71.6c-11.6,13.3-26.3,21.6-43.4,25.3
	c-28.5,6.2-54.9,1.8-78.4-16.2c-10.3-7.9-17.8-18.1-21.3-30.7C59,70.1,63.8,53.3,76.2,38.7c11.6-13.8,26.9-21.6,44.2-25.6
	C127.6,11.4,134.9,10.4,142.3,10.9z M136.1,17.4c-13.1-0.3-30.2,4.7-45.3,16.2C81.7,40.5,74.5,48.9,71,60
	c-6.8,21.7,1.9,41,17.3,53.6c19.7,16.1,42.8,20.6,67.3,17.1c17.8-2.5,33.5-10.4,45.8-24.3c15.2-17.3,19.3-46.2-1.8-66.9
	C183.5,23.9,163.9,17.6,136.1,17.4z"/>
<path class="st1" d="M64.1,172.3c-2.8,5.7-5.5,11.5-8.5,17.2c-2.7,5-6.4,6.6-10.9,5.3c-3.1-0.9-4.7-3.2-6-6c-2.3-5-4.9-9.9-7.7-15.4
	c-2.6,2.3-1.8,4.7-1.8,6.7c-0.1,5,0.1,10,0,15c-0.1,5-0.8,5.3-5.8,5.2c-3.3,0-3.9-1.6-3.9-4.4c0.1-10.3,0.1-20.6,0-31
	c0-3.6,0.9-6.4,4.5-7.7c3.7-1.4,6.9-0.1,9.8,2.2c1.9,1.5,2.7,3.8,3.7,5.9c3,6.4,6.1,12.7,9.4,19.5c4.6-5.8,6.7-12.4,9.7-18.6
	c1.3-2.7,2.5-5.4,4.8-7.3c2.9-2.4,6.3-3.1,9.9-1.4c3.2,1.5,3.9,4.2,3.9,7.3c0,10.6,0,21.2,0.1,31.8c0,3.6-2.2,3.5-4.7,3.5
	c-2.8,0-5.3,0.2-5.2-3.9c0.2-7.9,0.1-15.9,0.1-23.8C65.1,172.4,64.6,172.4,64.1,172.3z"/>
<path class="st1" d="M87,180.1c0-4.7-0.1-9.4,0-14.1c0.1-7,2-9.2,8.6-9.4c7.3-0.2,14.7,0.1,22.1-0.1c3.3-0.1,3.9,1.5,3.8,4.3
	c-0.1,3-0.3,5.2-4.2,5.1c-5.6-0.1-11.2,0-16.8,0c-2.4,0-4,0.8-4.1,3.4c-0.2,2.6,0.2,4.6,3.6,4.5c5.3-0.1,10.6,0.1,15.9-0.1
	c3.5-0.1,3.5,2,3.6,4.6c0.1,2.8-0.5,4.5-3.8,4.4c-5.3-0.1-10.6,0-15.9-0.1c-3.6-0.1-3.5,2.3-3.4,4.7c0,2.3,0.5,3.7,3.5,3.5
	c5.9-0.4,11.7,0,17.6-0.3c3.6-0.2,4.7,1.1,4.6,4.5c-0.1,2.7,0.2,5.3-3.9,5.2c-9.1-0.2-18.2-0.1-27.3,0c-3.2,0-4-1.5-4-4.3
	C87.1,190.7,87,185.4,87,180.1C87,180.1,87,180.1,87,180.1z"/>
<path class="st1" d="M239.6,200.6c-5.7,0.3-11.1-1-15.9-4.2c-7.3-4.9-11-14.2-9.2-22.3c1.9-8.7,10.4-16.6,19.8-17.7
	c5.5-0.7,11.1-0.6,16.4,1.8c9.4,4.2,14.9,13.7,13.3,23.3c-1.7,10.6-9.5,17.9-20.1,18.9C242.5,200.5,241,200.5,239.6,200.6z
	 M239.6,192.2c8.8,0,13.8-4.8,13.9-13.4c0.1-9-5.1-14.4-13.9-14.4c-8.7,0-14.6,5.7-14.6,14C224.9,187,230.5,192.3,239.6,192.2z"/>
<path class="st1" d="M178.9,186.8c0,2.9,0.1,5.5,0,8.1c-0.1,5-1.6,6.1-6.3,5.3c-1.8-0.3-2.6-1.2-2.6-2.9c0-11.5-0.1-23,0.1-34.5
	c0.1-3.8,2.9-6,6.3-6.1c6.4-0.2,12.9-0.7,19.3,0.4c6.8,1.2,11.3,5.2,12.8,11.8c1.5,6.6-2,11.3-7.4,14.7c-0.7,0.5-1.5,0.9-2.9,1.6
	c3.5,4.5,7,9,10.6,13.6c-9.7,2.6-10.1,2.5-15.3-4.5c-0.7-0.9-1.4-1.9-2-2.9C188.8,186.9,185.2,184.6,178.9,186.8z M179.3,177.4
	c4.7,0,8.8,0,12.8,0c0.6,0,1.2,0,1.8,0c3.5-0.4,5.4-2.7,5.6-5.8c0.3-3-1.9-4.9-4.7-5.6c-2-0.5-4.1-0.5-6.1-0.5
	C178.3,165.3,178.3,165.3,179.3,177.4z"/>
<path class="st1" d="M147.3,156.5c4.1,0,8.2,0.1,12.4,0c3.9-0.1,4.1,2.4,4.1,5.3c0,2.9-1.2,4.4-4.2,4.2c-0.6,0-1.2,0-1.8,0
	c-6.1-0.6-6.7,0.9-6.6,7.2c0.1,6.2,0,12.4,0.1,18.5c0,1.5,0,2.9,0.1,4.4c0.2,4.5-2.9,4.1-6,4.2c-3.5,0.1-5.5-0.5-5.3-4.7
	c0.3-8.2-0.1-16.5,0.2-24.7c0.1-3.8-1.3-5.4-5.1-4.9c-1.5,0.2-2.9,0.1-4.4,0c-1.7,0-3.8,0.7-4.4-1.6c-0.5-1.8,0.6-3.5,1.6-4.9
	c1.7-2.2,4.3-2.9,7-2.9C139.1,156.6,143.2,156.5,147.3,156.5z"/>
<path class="st1" d="M84.9,217c2.3,1.9,4.4,1,6.4,1.2c1.4,0.2,3,0,4.3,0.5c2.5,1.1,4.8,2.9,4.7,5.8c-0.1,2.8-2.3,5.2-5,5.5
	c-4.6,0.6-9.4,0.3-14.1,0.2c-0.7,0-1.5-0.8-1.5-1.8c0-1.4,0.7-2.4,1.9-2.4c2.9-0.2,5.9,0,8.8,0c1.7,0,3.6,0.6,4.7-1.4
	c-1-2.1-3-1.2-4.6-1.4c-2-0.2-4.2,0.2-6.1-0.5c-2.8-1-5.5-2.7-5-6.3c0.4-3.4,2.7-5.2,6-5.4c3.5-0.2,7.1-0.1,10.6,0
	c1.3,0,2.3,0.8,2.2,2.1c-0.1,1.2-1.1,2.1-2.3,2.2c-2,0.2-4.1,0.1-6.2,0.1C88.3,215.5,86.4,214.9,84.9,217z"/>
<path class="st1" d="M148.8,224.6c0-3.9,0-7.7,0-11.5c0-1.3,0.9-2.2,2.2-2.1c1.3,0.1,2.2,0.9,2.2,2.3c0.1,4.4,0.2,8.8-0.1,13.2
	c-0.1,1.8-1.2,3.3-3.1,3.8c-1.9,0.5-3.4-0.2-4.6-1.7c-2.9-3.5-5.8-7.1-8.9-10.9c-1.8,3.7-0.8,7-1,10.1c-0.1,1.8-0.9,2.7-2.7,2.6
	c-1.6-0.1-1.7-1.4-1.7-2.5c-0.1-4.1,0-8.2-0.1-12.3c0-1.9,0.6-3.5,2.5-4.2c1.8-0.6,3.5-0.2,4.7,1.3c2.6,3.2,5.1,6.5,7.6,9.7
	C146.5,223.1,147,224.3,148.8,224.6z"/>
<path class="st1" d="M228.3,225.1c-0.5-2.5-2.6-1.6-3.5-2.9c-1.1-1.7-0.4-3,0.9-3.6c4.7-2.1,8,0,8.1,4.9c0.1,6.4-0.5,6.4-7.1,7.1
	c-7.8,0.8-14.5-5.6-14.1-10.3c0.5-5.4,6.1-9.6,13.9-9.3c2.4,0.1,7-2.3,7,2.3c0,3.7-4.2,1.8-6.6,2c-6.8,0.4-9.4,1.9-9.2,5.6
	C217.8,224.8,220.8,226,228.3,225.1z"/>
<path class="st1" d="M249.3,231.4c-6.1-0.2-12-5.6-11.7-10.8c0.4-5.7,5.9-10.1,12.4-9.9c6,0.2,11.3,5,11.2,10.1
	C261.1,226.3,255.2,231.6,249.3,231.4z M249.8,214.6c-3.2-0.2-6.5,2.4-6.9,5.6c-0.5,3.4,2.7,6.8,6.3,6.9c3.8,0.1,6-2,6.1-5.9
	C255.5,217.3,253.3,214.7,249.8,214.6z"/>
<path class="st1" d="M51.4,216.9c1.4,2,3.3,1.1,5,1.3c2,0.2,4.7-0.6,4.8,2.3c0.1,3.7-3.1,2.5-5.2,2.7c-1.4,0.1-2.9-0.5-4.1,0.8
	c0.7,3.6,3.5,1.6,5.3,1.9c1.9,0.3,4.7-0.7,4.9,2.2c0.3,3.2-2.7,2.4-4.5,2.4c-13.9-0.1-11.1,1.5-11.3-10.8c-0.1-8.8,0-8.9,9.5-8.6
	c2.1,0.1,5.6-1.5,5.9,1.7c0.4,4.4-2.2,2.4-5.8,2.8C54.5,215.6,53,215,51.4,216.9z"/>
<path class="st1" d="M103.6,229.9c1.1-5.9,4.3-11.1,6.8-16.4c1.7-3.7,5.7-3.8,7.6-0.3c2.6,4.8,4.6,10,6.7,15.1
	c0.2,0.4,0,1.3-0.3,1.5c-0.7,0.4-2,0.9-2.3,0.6c-5.6-5.9-11-4.1-16.5,0.1C105.5,230.7,104.7,230.2,103.6,229.9z"/>
<path class="st1" d="M188.4,229.9c2.3-5.4,4.2-10.6,6.6-15.5c2.3-4.6,6.2-4.9,8.5-0.6c2.5,4.6,4.3,9.5,6.4,14.3
	c0.4,0.8,0.2,1.7-0.7,2.1c-0.5,0.2-1.4,0.4-1.7,0.1c-5.8-6-11.5-3.7-17.3,0C190.1,230.5,189.7,230.3,188.4,229.9z"/>
<path class="st1" d="M19.3,221.3c0-1.5-0.1-2.9,0-4.4c0.3-5.3,0.6-5.7,6.3-5.9c2.6-0.1,5.3-0.3,7.9,0.1c4.8,0.8,9,5.4,9,9.4
	c0.1,4.1-3.8,8.9-8.7,9.7c-4,0.6-8.1,0.2-12.2,0.2c-2,0-2.3-1.4-2.3-3C19.3,225.4,19.3,223.3,19.3,221.3
	C19.3,221.3,19.3,221.3,19.3,221.3z M28.7,226.5c4-0.1,4.8-0.1,6.8-1.4c2-1.3,3.4-3.2,2.4-5.9c-1.4-3.8-12-7.2-13.7-3.6
	c-1.7,3.4-0.9,6.2-0.6,9.3C23.7,227.5,26.9,226.3,28.7,226.5z"/>
<path class="st1" d="M166.4,211c0.8,0,1.4-0.1,2,0c2,0.2,4.7-1,5.7,1.2c1.3,2.8-1.8,3-3.5,3.9c-1.9,1.1-1.5,3-1.5,4.7
	c-0.1,2.6,0.2,5.3-0.1,7.9c-0.1,1.2-1.3,1.8-2.6,1.8c-1.3,0-2.4-0.6-2.6-1.9c-0.2-2-0.1-4.1-0.1-6.2c0.1-3.5,0.5-7-4.8-7.4
	c-1.9-0.1-1.2-2.3,0.1-3.2C161.3,210.1,164.1,211.4,166.4,211z"/>
<path class="st1" d="M183.4,221.4c0,2.1,0,4.1,0,6.2c0,1.6-0.6,2.9-2.5,2.8c-1.4-0.1-2-1-2-2.3c0-5,0-10,0.1-15c0-1.3,1.1-2.1,2.3-2
	c1.2,0.1,2.1,1,2.1,2.4C183.4,216.1,183.4,218.7,183.4,221.4C183.4,221.4,183.4,221.4,183.4,221.4z"/>
<path class="st0" d="M141.4,109.7c-6.8-12-13-23.1-19.7-35.1c-6.7,11.8-12.9,22.9-19.4,34.4c-4-4-5.5-8.9-8.1-13
	c-2.4-3.7-4.1-7.8-6.3-11.6c-7.2-12.3-6.2-8.4,0-20.4c4.3-8.3,9.1-16.3,14.1-25.3c6.7,12.1,12.9,23.3,19.7,35.5
	c6.8-12.1,13-23.3,19.8-35.6c6.7,12,13,23.3,19.8,35.5c6.8-12.2,13.1-23.4,19.8-35.4c6.5,11.6,12.4,22.3,18.4,33
	c0.9,1.7,1.1,3.4,0.2,5c-6,10.7-12,21.3-18.7,33.1C174.4,97.9,168.3,87,161.6,75C153.8,86.2,148.9,98.1,141.4,109.7z"/>
<polygon class="st2" points="116.8,218.6 119.5,223.2 114.2,223.2 109,223.2 111.6,218.7 114.2,214.1 "/>
<polygon class="st2" points="202.2,218.6 204.8,223.2 199.6,223.2 194.3,223.2 196.9,218.7 199.5,214.1 "/>
</svg>
