<?xml version="1.0" encoding="utf-8"?>
<!-- Generator: Adobe Illustrator 19.2.1, SVG Export Plug-In . SVG Version: 6.00 Build 0)  -->
<svg version="1.1" id="Capa_1" xmlns="http://www.w3.org/2000/svg" xmlns:xlink="http://www.w3.org/1999/xlink" x="0px" y="0px"
	 viewBox="0 0 276 250" style="enable-background:new 0 0 276 250;" xml:space="preserve">
<style type="text/css">
	.st0{fill:#797878;}
	.st1{fill:#00DFFA;}
</style>
<path class="st0" d="M30.5,168.2c0,1.4,0,2.8,0,4.2c0,0.8-0.1,1.4-1.1,1.5c-1,0-1.2-0.5-1.3-1.4c-0.4-2.6-1.2-5-3.4-6.8
	c-0.7-0.5-1.4-0.9-2.2-1.2c-3.9-1.3-7.6-1.3-10.9,1.6c-2.7,2.3-2.8,7.2-0.5,9.8c2.1,2.4,4.9,3.6,7.7,4.9c3,1.4,6.2,2.6,8.7,4.7
	c3.4,2.9,5.2,6.5,4.4,11.3c-0.4,2.3-1.1,4.3-2.5,6.2c-1.5,2-3.5,3.3-5.7,4.2c-4.3,1.8-8.9,1.2-13.3,0.9c-1.6-0.1-3.2-0.6-4.8-0.9
	c-0.8-0.2-1-0.7-1.1-1.4c-0.1-2.8-0.2-5.6-0.2-8.4c0-0.6,0-1.2,0.9-1.2c0.8,0,1.3,0.1,1.5,1.1c0.6,3.9,3,6.6,6.6,8
	c3.3,1.4,6.8,1.1,9.9-0.6c2.8-1.5,4.5-4.1,4.1-8c-0.4-3.4-2.3-5.5-5.1-7c-2.8-1.6-5.7-2.8-8.6-4.2c-3.5-1.6-6.8-3.5-8.4-7.3
	c-1.8-4.3-1.1-8.3,1.8-11.8c2.5-3,5.8-4.7,9.9-5c3.7-0.2,7.4,0.2,11,1.1c0.3,0.1,0.5,0.1,0.8,0.1c1.9,0.2,1.9,0.2,1.9,2.1
	c0,0.6,0,1.2,0,1.8C30.5,167,30.5,167.6,30.5,168.2C30.5,168.2,30.5,168.2,30.5,168.2z M19,161.7c-1,0-1.9-0.1-2.9,0.1
	c-2.5,0.6-4.8,1.3-6.8,3c-1.5,1.2-2.8,2.6-3.5,4.3c-0.8,2.3-1.4,4.5-0.6,7.2c0.9,2.8,2.5,4.8,4.7,6.3c2.9,1.9,6.1,3.3,9.3,4.7
	c2,0.9,3.9,2,5.6,3.4c2.4,2,3.7,5.9,2.8,8.8c-1.3,4.4-5.3,7.3-9.8,7.1c-2.2-0.1-4.5-0.2-6.4-1.5c-2.6-1.7-4.6-3.8-5.2-6.9
	c-0.1-0.4-0.2-0.9-0.7-0.9c-0.7,0-0.5,0.6-0.5,1c0.1,2.3,0.1,4.7,0.2,7c0,0.8,0.4,1.2,1.2,1.3c2,0.3,4.1,0.6,6.1,0.9
	c1.7,0.3,3.3,0.5,5,0.3c1.4-0.2,2.7-0.8,4-0.9c2.4-0.3,4.4-1.4,6.1-3c3.2-3,4.1-6.8,3.6-11c-0.1-1.2-0.5-2.5-1.2-3.4
	c-1.5-2.1-3.3-3.9-5.7-5.1c-0.8-0.4-1.7-0.7-2.4-1.2c-2.2-1.4-4.7-2-7-3.3c-1.8-1-3.5-2-4.7-3.8c-1.7-2.6-2.2-5.2-0.7-8.1
	c1.1-2.1,2.6-3.6,4.8-4.3c1.6-0.5,3.3-0.6,4.9-0.5c2,0.1,3.9,0.4,5.5,1.7c2.2,1.8,3.5,4.1,3.8,7c0,0.4,0.1,1.1,0.7,1
	c0.6-0.1,0.8-0.6,0.7-1.2c-0.3-2.4,0-4.7-0.1-7.1c-0.1-1.3-0.3-1.6-1.6-1.7c-1.3-0.1-2.5-0.2-3.8-0.5C22.6,162,20.8,161.6,19,161.7z
	"/>
<path class="st0" d="M256.6,192.6c0-0.2,0-0.3,0-0.5c0,0,0,0,0,0c0-0.2,0-0.3,0-0.5c0,0,0,0,0,0c0-1.7,0-3.3,0-5
	c0.5-1.5-0.3-2.7-1.7-2.8c-0.7,0-1.4,0-2.1,0.2c-0.2,0.1-0.4,0-0.5-0.2c-0.2-0.3,0.1-0.5,0.2-0.5c1.1-0.1,1.6-1.4,2.8-1.3
	c0.2,0,0.5-0.2,0.7-0.3c1.2-0.8,2.4-1.5,3.7-2.2c0.8-0.5,0.8,0,1,0.5c0.1,0.3,0,0.5,0,0.8c-0.1,1-0.1,2.1-0.1,3.1
	c0,0.5,0.2,0.8,0.7,0.9c0.3,0,0.8,0.1,0.8-0.4c0.1-1,0.8-1.6,1.3-2.2c1.7-2.1,3.8-3.7,6.6-3.3c2.8,0.4,2.3-0.4,2.4,2.4
	c0,0.4,0,0.8,0,1.3c0,0.7-0.2,1-1.1,0.6c-0.8-0.4-1.5-1.1-2.4-1.3c-1.8-0.3-3.3,0.4-4.7,1.3c-2.5,1.7-3.4,4.3-3.5,7.2
	c0,4.3,0,8.5,0,12.8c0,1.8,0.8,2.7,2.7,2.8c0.4,0,0.9-0.1,0.9,0.5c0,0.5-0.5,0.5-0.9,0.5c-1.3,0-2.6-0.1-3.9-0.1
	c-2.2,0-4.3,0.1-6.5,0.1c-0.3,0-0.9,0.3-0.9-0.4c0-0.6,0.5-0.4,0.8-0.5c0.6-0.3,1.4,0,2-0.3c1.3-0.7,1.8-1.9,1.4-3.6
	c0-0.1,0-0.3,0-0.4c0-0.1,0-0.3,0-0.4c0-0.1,0-0.3-0.1-0.4l0,0c0.1,0,0.2,0,0.3-0.1c0-0.2-0.1-0.2-0.3-0.1l0,0c0-0.1,0-0.2,0-0.4
	c0,0,0,0,0,0s0-0.1,0-0.1c0.1-0.1,0.2-0.1,0.2-0.2c-0.1-0.1-0.2-0.1-0.2-0.2c0,0,0-0.1,0-0.1c0,0,0,0,0,0c0-0.2,0-0.3,0-0.5
	c0,0,0,0,0,0c0-0.3,0-0.6,0-0.9c0,0,0,0,0,0c0-0.2,0-0.3,0-0.5c0,0,0,0,0,0c0-0.2,0-0.3,0-0.5c0,0,0,0,0,0s0-0.1,0-0.1
	c0.1-0.1,0.2-0.1,0.2-0.2c-0.1-0.1-0.2-0.1-0.2-0.2c0,0,0-0.1,0-0.1c0,0,0,0,0,0c0-0.2,0-0.3,0-0.5c0,0,0,0,0,0c0-0.2,0-0.3,0-0.5
	c0,0,0,0,0,0c0-0.5,0-0.9,0-1.4c0,0,0,0,0,0s0-0.1,0-0.1c0.1-0.1,0.2-0.1,0.2-0.2c-0.1-0.1-0.2-0.1-0.2-0.2c0-0.2,0-0.4,0-0.5
	c0,0,0,0,0,0c0-0.2,0-0.3,0-0.5c0,0,0,0,0,0c0-0.2,0-0.3,0-0.5c0,0,0,0,0,0C256.6,192.9,256.6,192.8,256.6,192.6
	C256.6,192.6,256.6,192.6,256.6,192.6z"/>
<path class="st0" d="M75.4,194.9c0,2.7,0,5.3,0,8c0,1.9,0.5,2.4,2.4,2.4c0.2,0,0.5,0,0.7,0c0.7,0.1,1.1,0.5,1,1.3
	c-0.1,0.7-0.5,1-1.2,0.9c-2.3-0.2-4.5-0.2-6.8-0.2c-1.5,0-3.1,0.1-4.6,0.2c-0.8,0.1-1.2-0.3-1.2-1c0-0.7,0.2-1.3,1.1-1.2
	c2.6,0.2,3.5-0.6,3.5-3.7c0-4.2,0-8.4,0-12.6c0-1.2-0.2-2.4-0.5-3.6c-0.4-1.5-1.3-2.1-2.8-1.5c-0.5,0.2-1,0.6-1.2-0.2
	c-0.2-0.7-0.3-1.5,0.7-1.8c2.3-0.7,4.4-1.8,6.4-3c0.3-0.2,0.5-0.3,0.8-0.4c0.8-0.3,1.3-0.1,1.3,0.9c0,0.9,0,1.8,0,2.7
	c0,0.3-0.1,0.8,0.3,0.9c0.4,0.1,0.6-0.2,0.9-0.4c1.4-1.5,2.9-2.8,4.7-3.5c4.5-1.8,9.6-0.4,11.8,4.6c1,2.3,1.2,4.7,1.2,7.2
	c0,3.8,0,7.5,0,11.3c0,2.6,0.5,3.1,3.1,3.1c1,0,1.5,0.2,1.4,1.4c-0.1,0.7-0.3,1-1,0.9c-3.9-0.3-7.8-0.3-11.8,0c-0.7,0.1-1-0.3-1-0.9
	c0-0.6,0-1.3,0.9-1.3c0.4,0,0.8,0,1.2-0.1c1.1-0.1,1.9-0.8,2-1.9c0.1-5.5,0.4-11.1-0.1-16.6c-0.3-3.6-4.5-5.9-8-4.4
	c-1.7,0.7-3.3,1.6-4.6,3c-0.5,0.5-0.6,0.9-0.6,1.5C75.4,189.5,75.4,192.2,75.4,194.9C75.4,194.9,75.4,194.9,75.4,194.9z M95.5,206.6
	c-1.6-1.1-2.5-2.4-2.4-4.4c0.1-3.7,0.1-7.3,0-11c0-2.5,0.1-4.9-1.1-7.3c-1.3-2.6-3.9-4.5-6.5-4.9c-1.3-0.2-2.4,0-3.7,0.6
	c-1.5,0.6-2.7,1.4-3.9,2.4c-0.2,0.2-0.7,0.3-0.4,0.7c0.2,0.4,0.8,0.3,1,0c0.8-1,1.8-1.1,2.9-1.1c1.9,0.1,4-0.6,5.6,1.2
	c1,1,1.9,2,2.1,3.4c0.8,5.6,0.6,11.1,0.2,16.7c-0.1,2-1,3.2-3.3,3.4c-0.1,0-0.3,0.1-0.2,0.5C89,206.6,92.3,207,95.5,206.6z
	 M78.1,206.9c-0.2-0.8-0.7-0.5-1-0.5c-1.1-0.1-2.2-1.1-2.2-2.2c0-6,0-12,0-18c0-0.9,0.5-1.6-0.3-2.5c-0.4-0.4-0.1-1.5-0.1-2.4
	c0-2-0.3-2.2-2.1-1.3c-0.1,0.1-0.2,0.1-0.3,0.2c-1.4,1-3,1.7-4.7,2.1c-0.2,0.1-0.6,0-0.6,0.5c0.3,0,0.5,0,0.8,0c2,0,3.3,1.2,3.3,3.2
	c0,5.7,0,11.4,0,17.1c0,2.3-1.8,3.4-3.5,3.2c-0.3,0-0.7-0.3-1.1,0.4C70.2,207,74.1,206.7,78.1,206.9z M97.2,206.5
	c-0.2-0.3-0.4-0.2-0.7-0.2c-0.2,0-0.4,0.1-0.3,0.4c0.1,0.2,0.4,0.2,0.6,0.2C97,206.8,97.2,206.8,97.2,206.5z"/>
<path class="st0" d="M161.3,194.9c0,2.6,0,5.2,0,7.9c0,2.2,0.5,2.6,2.7,2.6c1,0,1.3,0.3,1.3,1.3c0,1.1-0.6,1.1-1.4,1
	c-3.5-0.3-7.1-0.2-10.6,0c-0.2,0-0.4,0-0.6,0c-0.7,0-1.1-0.4-1.1-1.1c0-0.6,0.3-1,0.9-1.1c0.5-0.1,1.1,0,1.6-0.1
	c1-0.2,1.8-0.6,1.9-1.8c0.3-5.9,0.3-11.8-0.1-17.6c-0.1-1.7-1.3-2.4-3-1.9c-0.5,0.1-1.1,0.6-1.4-0.2c-0.2-0.7,0-1.5,0.8-1.8
	c2.3-0.7,4.4-1.8,6.4-3c0.3-0.2,0.6-0.3,0.9-0.4c0.8-0.4,1,0,1,0.7c0,1,0,2,0,3c0,0.3-0.1,0.8,0.3,0.9c0.4,0.1,0.6-0.2,0.9-0.4
	c1.5-1.7,3.3-3.1,5.4-3.8c4.8-1.5,9.6,0.4,11.5,5.7c0.8,2.3,1,4.8,0.9,7.3c0,3.3,0,6.5,0,9.8c0,0.3,0,0.5,0,0.8
	c0.1,2.4,0.5,2.8,2.9,2.9c0.2,0,0.5,0,0.7,0c0.7,0.1,1,0.6,1,1.2c0,0.6-0.4,1-1,1c-1.1,0-2.2-0.2-3.3-0.2c-2.7,0-5.3-0.1-8,0.2
	c-0.7,0.1-1.4,0-1.4-1c0-1,0.4-1.3,1.3-1.3c1.7,0,2.3-0.6,2.6-2.4c0.1-0.5,0.1-1.1,0.1-1.6c0-4.1,0.1-8.2,0-12.2
	c-0.1-3.1-1.1-5.7-4.3-6.8c-1.4-0.5-2.8-0.5-4.2,0.2c-1.6,0.7-3,1.6-4.3,2.8c-0.6,0.5-0.7,1-0.7,1.7
	C161.3,189.5,161.3,192.2,161.3,194.9C161.3,194.9,161.3,194.9,161.3,194.9z M183.5,206.5c-0.4-0.3-0.9-0.2-1.3-0.2
	c-1.2,0.1-1.8-0.6-2.3-1.5c-0.7-1.3-0.7-2.7-0.7-4c0.1-2,0.1-4,0.2-6c0.1-2.6-0.2-5.2-0.4-7.8c-0.2-2.4-1.2-4.4-3.2-6
	c-0.9-0.7-1.8-1.1-2.7-1.5c-1.6-0.8-3.2-0.6-4.7-0.2c-1.8,0.5-3.4,1.5-4.8,2.9c-0.2,0.2-0.6,0.3-0.5,0.7c0.2,0.4,0.5,0.1,0.8,0.1
	c0.3,0,0.6-0.1,0.8-0.4c0.6-0.7,1.4-0.8,2.2-0.8c1.1-0.1,2.1,0,3.2,0c2.1,0,3.2,1.3,4.2,2.8c1.6,2.5,1.5,5.5,1.4,8.3
	c-0.1,2.4-0.1,4.7,0,7.1c0.1,1.9-0.1,3.8-1.2,5.5c-0.4,0.6-0.9,0.9-1.6,0.9c-0.4,0-0.8-0.1-0.8,0.3c0,0.6,0.6,0.4,0.9,0.4
	c3.2,0,6.5,0,9.7,0C182.9,206.9,183.2,207,183.5,206.5z M152.8,182.6c0.4,0.3,0.8,0.2,1.1,0.2c1.2-0.1,2,0.6,2.3,1.5
	c0.3,0.9,0.5,1.8,0.7,2.7c0.5,2.7-0.2,5.3,0,7.9c0.2,2.6,0.3,5.3,0,7.9c-0.2,2.1-1.4,3.3-3.5,3.3c-0.2,0-0.5-0.1-0.6,0.4
	c3.9,0,7.7,0,11.7,0c-0.2-0.4-0.5-0.4-0.7-0.4c-2.4-0.3-3.2-1.2-3.2-3.7c0-5.2,0-10.4,0-15.6c0-0.7-0.1-1.4,0.5-1.9
	c0.3-0.2,0.2-0.6,0-0.8c-0.7-0.5-0.7-1.3-0.7-2.1c0-0.7,0-1.4,0-2.1c0-0.8-0.1-1.3-1-0.6c-0.5,0.4-1.1,0.8-1.7,1
	C156.2,181.2,154.6,182.2,152.8,182.6z M162.3,184c0.2-0.1,0.4-0.1,0.3-0.3c0-0.1-0.1-0.2-0.2-0.2c-0.1,0-0.3,0.1-0.3,0.3
	C162.1,183.9,162.3,183.9,162.3,184z"/>
<path class="st0" d="M215.5,179c0,7,0,13.9,0,20.9c0,0.5,0,0.9,0.2,1.4c0.7,1.8,1.8,2.3,3.6,1.6c0.4-0.2,1-0.8,1.3,0.1
	c0.2,0.7,0.1,1.5-0.6,1.8c-2.5,1-4.8,2.1-7.2,3.2c-0.8,0.4-1.4,0.1-1.7-0.9c-0.3-0.9,0-2.1-1-2.4c-0.8-0.2-1.5,0.7-2.2,1.2
	c-2,1.3-4.3,2-6.6,2.2c-2.9,0.2-5.7-0.7-8.1-2.4c-2.7-1.9-4.4-4.7-5-7.8c-0.6-3.1-0.5-6.2,0.6-9.3c1.3-3.8,3.8-6.6,7.2-8.6
	c2.6-1.5,5.5-1.8,8.5-1.5c1.6,0.2,3.1,0.3,4.6,1c1,0.5,1.3,0.2,1.3-1c0-4.1,0-8.2,0-12.4c0-2.5-1-3.3-3.5-2.9
	c-0.5,0.1-1.2,0.8-1.5-0.3c-0.3-1,0-1.7,1-2.1c0.9-0.4,1.8-0.8,2.7-1.2c1.8-0.8,3.5-1.6,5.1-2.7c0.9-0.6,1.4-0.3,1.4,0.8
	C215.5,164.9,215.5,172,215.5,179C215.5,179,215.5,179,215.5,179z M211,172.1C211,172.1,211,172.1,211,172.1c0,2,0,4.1,0,6.1
	c0,0.4-0.1,0.8-0.2,1.3c-0.1,0.7-0.4,1-1.3,0.7c-1.1-0.5-2.4-0.8-3.6-1c-3.7-0.7-7.1-0.5-10.5,1.7c-4,2.6-6.2,6.3-7,10.7
	c-0.6,3.4-0.2,6.9,1.8,10.1c2.3,3.7,5.5,5.5,9.7,5.6c3,0.1,5.9-0.6,8.4-2.5c2.3-1.6,2.3-1.5,2.8,1.2c0.2,1.2,0.9,1.5,2,1.1
	c2.1-0.8,4-2,6.2-2.6c0.2-0.1,0.4-0.1,0.4-0.4c0-0.3-0.3-0.3-0.5-0.3c-0.4,0-0.8,0-1.2,0c-1.3,0.2-2.1-0.5-2.6-1.6
	c-0.5-1.1-0.5-2.3-0.5-3.5c0-11.8,0-23.7,0-35.5c0-1.7,0.1-3.4,0.2-5.1c0-0.4,0.1-1.1-0.6-0.7c-0.6,0.4-1.3,0.5-1.8,0.9
	c-1.7,1.4-4.1,1.7-5.8,3c-0.3,0.3-1.1,0.2-1,0.7c0.1,0.6,0.8,0.3,1.3,0.3c0.5,0,1,0,1.5,0c0.4,0,0.7,0.1,0.9,0.4
	c0.7,1,1.5,2,1.4,3.3C211,168.1,211,170.1,211,172.1z"/>
<path class="st0" d="M59.3,193.8c0,2.1,0,4.2,0,6.2c0,1,0.3,1.9,0.5,2.8c0.2,0.8,1.3,1,2.5,0.6c0.4-0.1,0.9-0.9,1.3-0.1
	c0.3,0.7,0.1,1.3-0.7,1.7c-1.8,0.8-3.7,1.7-5.5,2.6c-1.1,0.6-1.7,0.3-2.2-0.8c-0.1-0.4-0.2-0.7-0.4-1.1c-0.4-1.1-0.8-1.2-1.7-0.5
	c-2,1.5-4.2,2.6-6.7,2.7c-5.5,0.3-9.6-4.7-7.4-9.7c0.9-2.1,2.9-3,4.8-3.8c2.6-1.1,5.3-2.2,7.9-3.2c0.1,0,0.2-0.1,0.3-0.2
	c2.8-0.8,2.4-1,2.2-3.3c-0.3-2.6-0.8-5.3-3.6-6.6c-0.8-0.4-1.5-0.4-2.2-0.3c-1.9,0.3-4.6,1.8-4.2,4c0,0.1,0,0.2,0,0.3
	c0.2,0.7,1,1.5,0.3,2.1c-1,0.8-2.1,1.4-3.4,1.6c-0.5,0.1-0.7-0.5-0.9-0.9c-1.2-2.3-0.5-4.7,1.7-6.2c1.6-1,3.1-2.1,4.8-2.8
	c4.3-1.8,10.6-0.7,12.1,4.9c0.3,1.2,0.3,2.4,0.3,3.7C59.3,189.8,59.3,191.8,59.3,193.8C59.3,193.8,59.3,193.8,59.3,193.8z
	 M58.7,193.8C58.7,193.8,58.7,193.8,58.7,193.8c0-2.5,0-5,0-7.5c0-1.6-0.8-2.9-1.4-4.2c-0.8-1.9-3-2.1-4.6-3
	c-0.7-0.4-1.6-0.2-2.5-0.3c-0.6,0-1.3,0.1-1.8,0.4c-0.6,0.4-1,0.9-1.8,0.7c-0.2,0-0.5,0.1-0.4,0.4c0.1,0.3,0.3,0.2,0.5,0.2
	c0.6-0.1,1.1-0.3,1.7-0.2c1.2,0.1,2.6-0.2,3.6,0.7c2.9,2.6,3.2,5.9,2.6,9.5c-0.1,0.3-0.2,0.7-0.6,0.8c-1.4,0.2-2.5,1.6-4.1,1.5
	c-0.2,0-0.5,0.3-0.7,0.4c-1.3,0.6-2.6,1.3-3.9,1.6c-1.3,0.3-2.3,1.1-3.5,1.7c-0.5,0.2-1.1,0.5-1.5,1c-1.4,2.2-1.6,6.1,1.1,8.3
	c1.2,1,2.5,0.9,3.8,1.2c2.8,0.5,5.2-0.5,7.3-2.1c0.7-0.5,1.5-1,2.3-0.7c0.7,0.3,0.7,1.1,0.8,1.8c0.1,0.8,0.4,0.9,1.1,0.9
	c1.6,0,2.7-1.2,4.1-1.6c0.5-0.1,0.2-0.7-0.3-0.8c-1.6-0.4-2-1.6-2-3.1C58.7,198.8,58.7,196.3,58.7,193.8z M40.5,186
	c0.4,0.6,0,1.7,0.7,2.2c0.5,0.4,0.9-0.5,1.4-0.6c0.1-0.1,0.3-0.1,0.5-0.1c0.7,0,0.8-0.4,0.8-1c0-0.5,0-0.9-0.1-1.4
	c-0.2-1.3,0.2-2.4,1.2-3.3c0.2-0.1,0.5-0.2,0.4-0.5c-0.1-0.3-0.5-0.2-0.7-0.1c-0.8,0.2-1.3,0.8-2,1.2
	C41.3,183.1,40.7,184.3,40.5,186z M63.2,204.3c-0.7-0.3-1.2-0.4-1.6,0c-0.1,0.1-0.1,0.3-0.1,0.3c0.4,0.3,0.8-0.1,1.2,0
	C62.8,204.6,62.9,204.4,63.2,204.3z"/>
<path class="st0" d="M145.3,193.8c0,2.3,0,4.5,0,6.8c0,0.3,0,0.6,0,0.9c0.2,2,1.2,2.6,3.1,1.9c0.5-0.2,1.1-0.6,1.4,0.1
	c0.2,0.6,0.1,1.1-0.6,1.5c-2,1-4,2-6.1,2.9c-1,0.4-1.5-0.1-1.7-0.9c-0.8-2.3-0.7-2.2-2.7-1.1c-1.6,0.9-3.2,1.8-5,2.1
	c-3.3,0.6-6-0.5-8-3.1c-2-2.6-0.9-7.5,1.9-9.1c2.6-1.5,5.5-2.5,8.3-3.5c1.2-0.4,2.3-1,3.5-1.4c0.4-0.1,0.8-0.4,0.8-0.9
	c0-2.3,0.2-4.7-1.2-6.8c-1.2-1.9-4-2.9-6.1-1.6c-0.6,0.4-1.3,0.7-1.8,1.2c-1,1.1-0.9,2.3-0.4,3.4c0.5,0.9,0.3,1.4-0.7,1.7
	c-0.8,0.3-1.5,0.8-2.3,1c-0.6,0.2-1,0-1.3-0.7c-0.7-1.6-1-3.1,0-4.7c0.4-0.6,0.9-1.2,1.5-1.6c1.5-1.1,3.1-2.1,4.8-2.9
	c2.8-1.3,8-1.1,10.3,1.6c1.5,1.7,2.2,3.7,2.2,5.9C145.4,189,145.3,191.4,145.3,193.8C145.3,193.8,145.3,193.8,145.3,193.8z
	 M149.1,204.2c-0.7-0.3-1.3-0.1-1.9-0.1c-0.6,0-1.3,0.1-1.6-0.5c-0.4-0.8-0.9-1.6-0.9-2.7c0.1-4.9,0.1-9.9,0-14.8
	c-0.1-4.1-3.3-7-7.1-7.2c-1.4-0.1-2.7,0-4.1,0.6c-1.1,0.5-2.1,1.2-3.2,1.6c-0.8,0.3-1.6,0.9-2.3,1.5c-1.5,1.3-1.8,3-1.4,4.9
	c0.2,1,0.7,1.2,1.6,0.6c0.4-0.3,0.7-0.5,1.1-0.5c0.8-0.1,0.9-0.5,0.7-1.2c-0.8-3.1,1-5.1,3.6-5.7c3-0.7,5.8,0.7,6.6,3.5
	c0.6,2,0.8,4.1,0.6,6.3c-0.1,0.6-0.4,0.8-0.9,0.9c-1.5,0.2-2.5,1.6-4.1,1.5c-0.1,0-0.2,0.1-0.3,0.2c-1.3,1-2.8,1.2-4.3,1.7
	c-1.2,0.5-2.3,1.3-3.5,1.8c-0.5,0.2-1.1,0.7-1.5,1.2c-1,1.3-0.5,2.8-0.7,4.2c-0.3,2.4,2.1,4.8,4.3,5.2c1.4,0.2,2.8,0.2,4.2,0.1
	c0.7-0.1,1.6,0.1,2.2-0.4c0.9-0.8,2.1-1.3,3.1-1.9c1.4-0.8,2.1-0.5,2.3,1.1c0.1,1.1,0.8,1.5,2,1.2c1.3-0.3,2.4-1.1,3.6-1.7
	C147.7,205,148.5,204.9,149.1,204.2z"/>
<path class="st0" d="M238.5,191c-3,0-6.1,0-9.1,0c-1,0-1.3,0.3-1.2,1.3c0.5,3.5,1.2,7,3.7,9.7c1.6,1.7,3.5,2.8,5.9,3
	c1.8,0.1,3.7,0,5.5-0.1c1.5-0.1,2.8-1,4.2-1.5c0.4-0.1,0.8-0.8,1.1-0.3c0.3,0.5,0.5,1.4-0.2,1.9c-3.4,2.2-7.2,3.6-11.3,3.2
	c-4.7-0.4-8.6-2.2-11.4-6.3c-2.4-3.5-3.1-7.2-2.6-11.1c0.4-2.9,1.8-5.4,3.7-7.6c1.5-1.7,3.3-3.1,5.4-4c2.1-0.8,4.3-0.9,6.5-0.7
	c3.5,0.2,6.3,1.7,8.5,4.6c1.5,2.1,2,4.4,2.1,6.9c0,1-0.6,1.2-1.3,1.1C244.7,191,241.6,191,238.5,191C238.5,191,238.5,191,238.5,191z
	 M238.1,190.4c3,0,6.1,0,9.1,0c0.9,0,1.4-0.2,1.3-1.3c-0.1-2.9-1.4-5.2-3.3-7.2c-0.2-0.2-0.6-0.4-0.8-0.6c-1.1-0.9-2.5-1.4-3.8-1.8
	c-2.3-0.8-4.6-0.6-6.9-0.2c-2,0.4-3.8,1.4-5.2,2.9c-2.1,2.1-3.9,4.5-4.6,7.4c-0.3,1.2-0.2,2.5-0.4,3.8c-0.2,2.3,0.6,4.3,1.4,6.3
	c1.1,2.7,3,4.7,5.6,6.1c1.8,1,3.7,1.4,5.8,1.6c2.7,0.3,5.2-0.1,7.7-0.9c1.2-0.4,2.3-1,3.4-1.7c0.3-0.2,0.8-0.2,0.6-0.6
	c-0.2-0.5-0.6-0.1-0.9,0c-0.6,0.1-1,0.9-1.7,0.9c-2.1,0.1-4.2,0.6-6.4,0.6c-3.3,0-5.8-1.3-8-3.7c-1.2-1.4-1.7-3-2.4-4.6
	c-0.8-1.8-0.9-3.7-0.9-5.6c0-0.8,0.4-1.3,1.4-1.2C232.1,190.4,235.1,190.4,238.1,190.4z"/>
<path class="st0" d="M105.8,191c0-2.7,0-5.4,0-8.1c0-0.9-0.3-1.2-1.1-1.1c-1.3,0-2.7,0-4,0c-0.4,0-0.9,0-1.1-0.5
	c-0.2-0.6,0.3-0.6,0.6-0.8c2.9-2.1,5.5-4.6,7.6-7.6c0.5-0.8,1-1.5,1.5-2.3c0.3-0.4,0.5-1,1-1c0.6,0.1,0.6,0.8,0.6,1.3
	c0,2,0,4.1,0,6.1c0,1.5,0,1.6,1.6,1.6c2.2,0,4.5,0,6.7,0c0.7,0,1.6-0.3,1.6,0.9c0,1.1-0.8,2.2-1.7,2.2c-2,0-3.9,0-5.9,0
	c-0.3,0-0.7,0-1,0c-0.9-0.1-1.3,0.3-1.3,1.2c0,4.4,0,8.7,0,13.1c0,1.8,0.2,3.6,1.1,5.2c1.6,2.8,5.2,2.9,7.7,1.6
	c0.4-0.2,0.9-0.4,1.4-0.5c0.4-0.1,0.7,0,0.8,0.4c0.1,0.3,0.2,0.7-0.1,0.9c-1.6,1.4-3.1,2.8-4.9,4c-1.3,0.9-2.8,0.2-4.1-0.1
	c-2.2-0.5-4-1.7-5.3-3.6c-1.1-1.6-1.6-3.3-1.7-5.2C105.8,196.3,105.9,193.7,105.8,191C105.8,191,105.8,191,105.8,191z M106.2,190
	C106.2,190,106.2,190,106.2,190c0,0.5,0,0.9,0,1.4c0,3.5-0.2,7.1,0.9,10.5c0.2,0.5,0.4,1,0.7,1.4c0.8,1.3,1.9,2.1,3.2,2.9
	c2.2,1.3,5.5,1.2,7.4-0.5c0.5-0.4,0.9-0.9,1.6-1.2c0.2-0.1,0.6-0.2,0.4-0.6c-0.2-0.3-0.5-0.3-0.8-0.2c-1.7,0.5-3.3,0.7-5.1,0.4
	c-1.4-0.3-2.3-1.1-3-2.1c-1.6-2.4-1.6-5.3-1.5-8c0.1-3.8,0.1-7.5,0-11.3c0-1.2,0.4-1.5,1.4-1.5c2.4,0,4.8,0,7.2,0.1
	c1.1,0.1,1.2-0.7,1.3-1.3c0.1-0.9-0.7-0.5-1.1-0.5c-2.5,0-4.9,0-7.4,0c-1.1,0-1.5-0.5-1.4-1.5c0.1-2,0-3.9,0-5.9
	c0-0.3,0-0.7-0.3-0.8c-0.3-0.1-0.5,0.3-0.6,0.6c-0.5,1.2-1.2,2.1-2,3c-1.6,1.9-3.1,3.8-5.2,5.2c-0.2,0.1-0.4,0.2-0.4,0.5
	c0.1,0.3,0.4,0.3,0.6,0.3c0.6,0,1.2,0,1.8,0c1.8,0.1,2.1,0.4,2.1,2.1C106.2,185.3,106.2,187.6,106.2,190z"/>
<path class="st0" d="M256.7,202.2c0.4,1.7-0.1,2.9-1.4,3.6c-0.6,0.3-1.3,0-2,0.3c-0.3,0.1-0.9-0.1-0.8,0.5c0,0.6,0.6,0.4,0.9,0.4
	c2.2,0,4.3-0.1,6.5-0.1c1.3,0,2.6,0.1,3.9,0.1c0.4,0,0.9,0.1,0.9-0.5c0-0.5-0.5-0.4-0.9-0.5c-1.8-0.1-2.7-0.9-2.7-2.8
	c0-4.3,0-8.5,0-12.8c0-2.9,1-5.5,3.5-7.2c1.3-0.9,2.9-1.7,4.7-1.3c0.9,0.2,1.6,0.9,2.4,1.3c0.9,0.4,1,0.1,1.1-0.6c0-0.4,0-0.8,0-1.3
	c-0.1-2.8,0.4-2.1-2.4-2.4c-2.8-0.4-4.9,1.2-6.6,3.3c-0.5,0.7-1.3,1.2-1.3,2.2c0,0.5-0.5,0.4-0.8,0.4c-0.5,0-0.7-0.4-0.7-0.9
	c0-1,0-2.1,0.1-3.1c0-0.3,0.1-0.5,0-0.8c-0.2-0.4-0.2-0.9-1-0.5c-1.3,0.7-2.5,1.4-3.7,2.2c-0.2,0.1-0.5,0.3-0.7,0.3
	c-1.2-0.1-1.7,1.3-2.8,1.3c-0.2,0-0.4,0.3-0.2,0.5c0.1,0.2,0.3,0.2,0.5,0.2c0.7-0.3,1.4-0.2,2.1-0.2c1.5,0,2.2,1.3,1.7,2.8
	c-0.2-0.4-0.2-0.9-0.5-1.3c-0.7-1.2-1.6-1.5-2.9-1c-0.4,0.1-0.9,0.8-1.2,0c-0.3-0.7-0.3-1.4,0.6-1.9c1.9-0.9,3.9-1.8,5.7-2.9
	c0.6-0.4,1-0.9,1.7-1.1c0.8-0.3,1.2-0.1,1.2,0.8c0,1.2,0,2.4,0,3.6c0,0.3-0.1,0.7,0.2,0.8c0.4,0.1,0.6-0.3,0.7-0.6
	c0.8-1.4,1.9-2.6,3.2-3.7c1.4-1.1,3.1-1.1,4.7-1.1c0.5,0,0.9,0.2,1.4,0.2c1.8,0.2,1.8,0.2,1.8,2c0,1.2,0,2.4,0,3.6
	c0,0.3,0,0.7-0.4,0.8c-0.4,0.1-0.7,0-0.9-0.3c-1.4-2-3.4-2-5.5-1.5c-2.1,0.5-3.4,1.9-4.1,3.9c-0.6,1.4-0.7,2.9-0.7,4.4
	c0,3.6,0,7.2,0,10.9c0,0.5,0.1,1.1,0.1,1.6c0.1,1,0.7,1.5,1.7,1.5c0.4,0,0.8,0,1.2,0c0.7,0.1,1.1,0.5,1.1,1.2c-0.1,0.7-0.4,1-1.1,1
	c-1.4-0.1-2.8-0.1-4.1-0.2c-2.4-0.1-4.8,0.1-7.3,0.2c-0.8,0-1.2-0.3-1.2-1.1c0-0.8,0.3-1.3,1.2-1.2c0.2,0,0.5,0,0.7,0
	c1.7,0,2.2-0.4,2.7-2.1C256.5,202.9,256.6,202.6,256.7,202.2z"/>
<path class="st0" d="M256.7,201.4c0,0.1,0,0.3,0,0.4C256.5,201.7,256.5,201.6,256.7,201.4z"/>
<path class="st0" d="M256.7,200.1c0.1,0.1,0.2,0.1,0.2,0.2c-0.1,0.1-0.2,0.1-0.2,0.2C256.7,200.3,256.7,200.2,256.7,200.1z"/>
<path class="st0" d="M256.7,194.5c0.1,0.1,0.2,0.1,0.2,0.2c-0.1,0.1-0.2,0.1-0.2,0.2C256.7,194.8,256.7,194.6,256.7,194.5z"/>
<path class="st0" d="M256.7,197.3c0.1,0.1,0.2,0.1,0.2,0.2c-0.1,0.1-0.2,0.1-0.2,0.2C256.7,197.5,256.7,197.4,256.7,197.3z"/>
<path class="st0" d="M256.6,191.7C256.6,191.7,256.6,191.7,256.6,191.7C256.4,191.7,256.7,191.7,256.6,191.7z"/>
<path class="st0" d="M256.6,192.2C256.6,192.2,256.6,192.2,256.6,192.2C256.4,192.2,256.7,192.2,256.6,192.2z"/>
<path class="st0" d="M256.6,192.6C256.6,192.6,256.6,192.6,256.6,192.6C256.4,192.6,256.7,192.6,256.6,192.6z"/>
<path class="st0" d="M256.6,193.1C256.6,193.1,256.6,193.1,256.6,193.1C256.4,193.1,256.7,193.1,256.6,193.1z"/>
<path class="st0" d="M256.6,198.6C256.6,198.6,256.6,198.6,256.6,198.6C256.4,198.6,256.7,198.6,256.6,198.6z"/>
<path class="st0" d="M256.6,199.6C256.6,199.6,256.6,199.6,256.6,199.6C256.4,199.6,256.7,199.6,256.6,199.6z"/>
<path class="st0" d="M256.6,200C256.6,200,256.6,200,256.6,200C256.6,200,256.6,200,256.6,200C256.6,200,256.6,200,256.6,200z"/>
<path class="st0" d="M256.6,200.5C256.6,200.5,256.6,200.5,256.6,200.5C256.6,200.5,256.6,200.5,256.6,200.5z"/>
<path class="st0" d="M256.6,201c0-0.1,0-0.1,0-0.2c0,0,0,0,0,0c0,0-0.1,0-0.1,0.1C256.6,201,256.6,201,256.6,201L256.6,201z"/>
<path class="st0" d="M256.6,197.3C256.6,197.3,256.6,197.2,256.6,197.3C256.6,197.2,256.6,197.2,256.6,197.3
	C256.6,197.2,256.6,197.3,256.6,197.3z"/>
<path class="st0" d="M256.6,196.8C256.6,196.8,256.6,196.8,256.6,196.8C256.4,196.8,256.7,196.8,256.6,196.8z"/>
<path class="st0" d="M256.6,198.2C256.6,198.2,256.6,198.2,256.6,198.2C256.4,198.2,256.7,198.2,256.6,198.2z"/>
<path class="st0" d="M256.6,196.3C256.6,196.3,256.6,196.3,256.6,196.3C256.4,196.3,256.7,196.3,256.6,196.3z"/>
<path class="st0" d="M256.6,193.6C256.6,193.6,256.6,193.5,256.6,193.6C256.4,193.5,256.7,193.6,256.6,193.6z"/>
<path class="st0" d="M256.6,197.7C256.6,197.7,256.6,197.7,256.6,197.7C256.6,197.7,256.6,197.7,256.6,197.7z"/>
<path class="st0" d="M256.6,194C256.6,194,256.6,194,256.6,194C256.4,194,256.7,194,256.6,194z"/>
<path class="st0" d="M256.6,194.9C256.6,194.9,256.6,194.9,256.6,194.9C256.6,194.9,256.6,194.9,256.6,194.9z"/>
<path class="st1" d="M136.7,32.3c1.2,1.3,0.6,2.6,0.8,3.7c0.7,3.7,2.5,6.8,4.5,10c2.4,3.9,5,7.5,7.9,10.9c2.7,3.2,4.6,6.8,7,10.1
	c1,1.4,1.6,3,2,4.7c0.7,2.7,1.3,5.4,1,8.2c-0.1,0.9,0.4,1.3,1.1,1.7c1.1,0.7,2.4,0.6,3.6,0.9c4.1,1,8.1,2.2,11.8,4.2
	c4.3,2.3,8.5,4.7,12,8.3c1.8,1.9,3.6,3.9,4.6,6c1.5,3.3,2.5,6.8,0.7,10.8c-1.6,3.4-3.4,6.5-6.2,8.9c-2.1,1.7-4.4,3.1-6.8,4.6
	c-2.9,1.8-6.2,2.4-9,4.4c-0.1,0.1-0.3,0.2-0.5,0.2c-3,0.2-5.6,2.4-8.8,2.1c-1.4-0.1-2.2,1.3-3.6,1.4c-2,0.1-4.1,0-5.9,0.7
	c-3.8,1.4-7.7,0.8-11.6,1.2c-2.7,0.3-5.5,0-8.3-0.2c-1.8-0.1-3.6,0.1-5.4,0.2c-5,0.3-9.6-2.2-14.6-1.9c-2.5-1.8-5.8-0.9-8.3-2.6
	c-0.3-0.2-0.6-0.4-0.9-0.4c-3.6-0.5-6.9-2.2-10-3.8c-4-2-8-4.5-11-8c-1.9-2.2-3.4-4.6-4.3-7.4c-1-2.9-0.6-5.7,0.4-8.6
	c1.6-4.5,4.6-7.8,8.5-10.6c3.1-2.2,6.3-3.9,9.8-5.4c3.1-1.3,6-2.7,9.4-3c1.1-0.1,1.8-1.3,3.1-1.4c2-0.2,3.1,0.3,3.8,2.2
	c0.9,2.8,2.9,4.9,4.4,7.3c2,3,4.4,5.7,6.4,8.7c1.2,1.8,2.5,3.5,3.9,5.2c3.6,4.5,5.7,9.5,5.1,15.3c-0.1,0.9,0.5,1.3,1,1.5
	c0.7,0.2,1.4-0.1,1.8-0.8c1.5-2.8,3.3-5.4,4.2-8.4c1.1-3.8,1.2-7.5-0.3-11.3c-2.2-5.8-6.4-10.1-9.8-15.1c-2.6-3.8-5.1-7.6-7.8-11.3
	c-3.1-4.3-3.2-9-2.7-13.8c0.2-2.3,0.6-5,2.7-6.8c0.4-0.3,0.5-1.1,0.7-1.8c0.8,0.4,0.7,1.1,0.6,1.7c-0.5,4.9,1.9,8.7,4.8,12.4
	c2.5,3.2,4.7,6.6,7.3,9.8c2.1,2.7,3.8,5.7,6,8.3c2.9,3.5,5,7.6,5.5,12.2c0.1,0.9-0.1,1.8-0.2,2.7c-0.1,0.9,0,1.9,0.9,2.2
	c0.9,0.3,1.1-0.6,1.6-1.2c2.9-3.7,4.2-8,4.9-12.6c0.6-4.4-1.3-8.3-3.5-12c-2.5-4.3-5.5-8.3-8.7-12.1c-1.4-1.6-2.8-3.4-3.8-5.1
	c-1.1-1.9-2.5-3.5-3.4-5.4c-2.7-5.9-2.9-11.8-0.4-17.8C135.4,34.8,136.5,34,136.7,32.3z"/>
<path class="st0" d="M19,161.7c1.9-0.2,3.7,0.2,5.5,0.6c1.2,0.3,2.5,0.4,3.8,0.5c1.3,0.1,1.5,0.4,1.6,1.7c0.1,2.4-0.2,4.7,0.1,7.1
	c0.1,0.5-0.1,1.1-0.7,1.2c-0.6,0.1-0.7-0.5-0.7-1c-0.2-2.9-1.5-5.2-3.8-7c-1.6-1.3-3.5-1.6-5.5-1.7c-1.7-0.1-3.3,0-4.9,0.5
	c-2.2,0.6-3.7,2.1-4.8,4.3c-1.5,2.9-0.9,5.6,0.7,8.1c1.1,1.7,2.9,2.7,4.7,3.8c2.2,1.3,4.8,1.9,7,3.3c0.7,0.5,1.6,0.8,2.4,1.2
	c2.4,1.2,4.2,3,5.7,5.1c0.7,1,1.1,2.3,1.2,3.4c0.5,4.2-0.5,8.1-3.6,11c-1.7,1.6-3.7,2.7-6.1,3c-1.4,0.2-2.6,0.7-4,0.9
	c-1.7,0.3-3.4,0-5-0.3c-2-0.3-4.1-0.6-6.1-0.9c-0.8-0.1-1.2-0.6-1.2-1.3c-0.1-2.3-0.2-4.7-0.2-7c0-0.4-0.2-0.9,0.5-1
	c0.6,0,0.6,0.5,0.7,0.9c0.6,3.2,2.6,5.2,5.2,6.9c2,1.3,4.2,1.4,6.4,1.5c4.5,0.2,8.5-2.8,9.8-7.1c0.9-2.9-0.4-6.9-2.8-8.8
	c-1.7-1.4-3.6-2.5-5.6-3.4c-3.1-1.4-6.4-2.8-9.3-4.7c-2.2-1.4-3.8-3.5-4.7-6.3c-0.9-2.7-0.3-4.9,0.6-7.2c0.6-1.8,2-3.1,3.5-4.3
	c2-1.7,4.4-2.4,6.8-3C17,161.6,18,161.8,19,161.7z"/>
<path class="st0" d="M256.6,201c0,0,0-0.1-0.1-0.1c0,0,0,0,0.1-0.1c0.1-0.1,0.3,0,0.3,0.1C256.8,201,256.7,201,256.6,201z"/>
<path class="st0" d="M95.5,206.6c-3.2,0.3-6.5,0-9.7,0.3c-0.1-0.5,0.1-0.5,0.2-0.5c2.3-0.2,3.2-1.4,3.3-3.4
	c0.3-5.6,0.6-11.1-0.2-16.7c-0.2-1.4-1.1-2.4-2.1-3.4c-1.7-1.8-3.7-1.1-5.6-1.2c-1.1,0-2.1,0.1-2.9,1.1c-0.2,0.3-0.8,0.3-1,0
	c-0.2-0.3,0.2-0.5,0.4-0.7c1.2-1,2.4-1.7,3.9-2.4c1.3-0.5,2.4-0.7,3.7-0.6c2.6,0.3,5.3,2.3,6.5,4.9c1.2,2.4,1.1,4.8,1.1,7.3
	c0,3.7,0.1,7.3,0,11C93.1,204.2,93.9,205.5,95.5,206.6z"/>
<path class="st0" d="M78.1,206.9c-4-0.2-7.8,0.2-11.8-0.1c0.4-0.7,0.8-0.4,1.1-0.4c1.8,0.2,3.5-0.9,3.5-3.2c0-5.7,0-11.4,0-17.1
	c0-2-1.3-3.2-3.3-3.2c-0.3,0-0.5,0-0.8,0c0-0.5,0.4-0.4,0.6-0.5c1.7-0.5,3.3-1.1,4.7-2.1c0.1-0.1,0.2-0.1,0.3-0.2
	c1.8-0.9,2.1-0.7,2.1,1.3c0,0.8-0.3,1.9,0.1,2.4c0.8,0.9,0.3,1.6,0.3,2.5c-0.1,6,0,12,0,18c0,1,1.1,2,2.2,2.2
	C77.4,206.4,77.9,206.1,78.1,206.9z"/>
<path class="st0" d="M97.2,206.5c0,0.3-0.2,0.3-0.4,0.3c-0.2,0-0.5,0-0.6-0.2c-0.1-0.2,0.1-0.3,0.3-0.4
	C96.8,206.3,97,206.2,97.2,206.5z"/>
<path class="st0" d="M183.5,206.5c-0.2,0.5-0.6,0.3-0.8,0.3c-3.2,0-6.5,0-9.7,0c-0.3,0-0.9,0.3-0.9-0.4c0-0.4,0.5-0.3,0.8-0.3
	c0.7,0.1,1.2-0.2,1.6-0.9c1.1-1.7,1.3-3.6,1.2-5.5c-0.1-2.4-0.1-4.7,0-7.1c0.1-2.9,0.3-5.8-1.4-8.3c-0.9-1.4-2-2.8-4.2-2.8
	c-1.1,0-2.1,0-3.2,0c-0.8,0.1-1.6,0.2-2.2,0.8c-0.2,0.2-0.5,0.4-0.8,0.4c-0.3,0-0.6,0.4-0.8-0.1c-0.2-0.4,0.3-0.5,0.5-0.7
	c1.4-1.3,3-2.4,4.8-2.9c1.5-0.4,3.1-0.6,4.7,0.2c0.9,0.5,1.8,0.9,2.7,1.5c2,1.6,2.9,3.5,3.2,6c0.3,2.6,0.5,5.2,0.4,7.8
	c0,2-0.1,4-0.2,6c0,1.4,0,2.8,0.7,4c0.5,0.9,1.1,1.6,2.3,1.5C182.6,206.3,183,206.2,183.5,206.5z"/>
<path class="st0" d="M152.8,182.6c1.8-0.5,3.3-1.4,4.9-2.1c0.6-0.3,1.1-0.6,1.7-1c0.9-0.6,1.1-0.2,1,0.6c0,0.7,0,1.4,0,2.1
	c0,0.8,0,1.5,0.7,2.1c0.3,0.2,0.3,0.6,0,0.8c-0.6,0.5-0.5,1.2-0.5,1.9c0,5.2,0,10.4,0,15.6c0,2.5,0.8,3.4,3.2,3.7
	c0.2,0,0.5,0,0.7,0.4c-3.9,0-7.8,0-11.7,0c0.1-0.5,0.3-0.4,0.6-0.4c2.1-0.1,3.2-1.2,3.5-3.3c0.3-2.6,0.3-5.3,0-7.9
	c-0.2-2.6,0.4-5.3,0-7.9c-0.2-0.9-0.4-1.9-0.7-2.7c-0.3-0.9-1.1-1.7-2.3-1.5C153.6,182.9,153.2,183,152.8,182.6z"/>
<path class="st0" d="M162.3,184c-0.1-0.1-0.2-0.1-0.2-0.2c0-0.2,0.1-0.3,0.3-0.3c0.1,0,0.2,0.1,0.2,0.2
	C162.7,183.9,162.5,183.9,162.3,184z"/>
<path class="st0" d="M211,172.1c0-2,0-4,0-6c0-1.4-0.7-2.3-1.4-3.3c-0.2-0.3-0.6-0.4-0.9-0.4c-0.5,0-1,0-1.5,0
	c-0.5,0-1.2,0.3-1.3-0.3c-0.1-0.5,0.7-0.4,1-0.7c1.8-1.4,4.1-1.6,5.8-3c0.5-0.4,1.2-0.5,1.8-0.9c0.7-0.4,0.6,0.3,0.6,0.7
	c-0.1,1.7-0.2,3.4-0.2,5.1c0,11.8,0,23.7,0,35.5c0,1.2,0.1,2.4,0.5,3.5c0.5,1.1,1.3,1.8,2.6,1.6c0.4,0,0.8,0,1.2,0
	c0.2,0,0.5,0,0.5,0.3c0,0.2-0.2,0.3-0.4,0.4c-2.2,0.6-4.1,1.9-6.2,2.6c-1.1,0.4-1.8,0-2-1.1c-0.5-2.7-0.6-2.8-2.8-1.2
	c-2.5,1.8-5.4,2.5-8.4,2.5c-4.2-0.1-7.4-2-9.7-5.6c-2-3.2-2.4-6.7-1.8-10.1c0.8-4.4,3-8.1,7-10.7c3.4-2.2,6.8-2.4,10.5-1.7
	c1.2,0.2,2.5,0.5,3.6,1c0.8,0.4,1.1,0.1,1.3-0.7c0.1-0.4,0.1-0.8,0.2-1.3C211,176.2,211,174.2,211,172.1
	C211,172.1,211,172.1,211,172.1z M210.4,192.8c0-2.5,0-5.1,0-7.6c0-0.8-0.2-1.5-0.8-1.9c-1.7-1.2-3.5-2.3-5.7-2.6
	c-4.8-0.7-8.5,1.6-10.3,5.9c-1.7,4.2-1.1,8.4,0.7,12.4c1.3,2.9,3.4,4.9,6.6,5.5c3.3,0.6,6.1-0.5,8.8-2.3c0.6-0.4,0.6-1,0.6-1.6
	C210.4,198,210.4,195.4,210.4,192.8z"/>
<path class="st0" d="M58.7,193.8c0,2.5,0,5,0,7.5c0,1.5,0.3,2.7,2,3.1c0.5,0.1,0.8,0.7,0.3,0.8c-1.4,0.4-2.5,1.6-4.1,1.6
	c-0.7,0-1-0.1-1.1-0.9c0-0.6-0.1-1.5-0.8-1.8c-0.8-0.3-1.6,0.1-2.3,0.7c-2.2,1.6-4.5,2.6-7.3,2.1c-1.4-0.2-2.6-0.2-3.8-1.2
	c-2.8-2.3-2.5-6.1-1.1-8.3c0.3-0.6,1-0.8,1.5-1c1.2-0.5,2.2-1.3,3.5-1.7c1.4-0.4,2.6-1.1,3.9-1.6c0.2-0.1,0.5-0.4,0.7-0.4
	c1.6,0.1,2.6-1.2,4.1-1.5c0.4-0.1,0.5-0.4,0.6-0.8c0.6-3.6,0.2-6.9-2.6-9.5c-1-0.9-2.4-0.6-3.6-0.7c-0.6,0-1.1,0.1-1.7,0.2
	c-0.2,0-0.5,0.1-0.5-0.2c-0.1-0.3,0.2-0.5,0.4-0.4c0.8,0.2,1.3-0.4,1.8-0.7c0.5-0.3,1.2-0.4,1.8-0.4c0.8,0,1.8-0.1,2.5,0.3
	c1.6,0.9,3.8,1.1,4.6,3c0.6,1.3,1.4,2.6,1.4,4.2C58.7,188.8,58.7,191.3,58.7,193.8C58.7,193.8,58.7,193.8,58.7,193.8z M54.5,198.3
	c0-0.1,0-0.2,0-0.2c0-0.1,0-0.1,0-0.2c0.1,0,0.3-0.1,0.3-0.1c0.2-1.6,0.1-3.3-0.1-4.9c-0.1-0.7-1.1-1-1.5-0.5
	c-0.5,0.7-1.2,0.7-1.9,0.9c-0.3,0.1-0.7,0.1-0.9,0.3c-1,1.1-2.6,1.1-3.8,1.7c-1,0.5-1.9,1.1-2.5,1.8c-1.6,2.1-1.7,3.8,0,6
	c0.8,1,1.7,2,3.3,2.1c2.2,0.2,4-0.4,5.8-1.5c1.8-1.1,2.3-2.9,1.3-4.3c0.1-0.2,0.1-0.4,0.2-0.6c0.1-0.1,0.2-0.2,0-0.3
	c0-0.1,0-0.2,0-0.2l0.1-0.1l-0.1,0.1C54.6,198.3,54.6,198.3,54.5,198.3L54.5,198.3z"/>
<path class="st0" d="M40.5,186c0.2-1.7,0.9-2.9,2.2-3.6c0.7-0.4,1.2-1,2-1.2c0.3-0.1,0.6-0.2,0.7,0.1c0.1,0.3-0.2,0.3-0.4,0.5
	c-1,0.9-1.4,1.9-1.2,3.3c0.1,0.5,0,0.9,0.1,1.4c0,0.6-0.2,1-0.8,1c-0.2,0-0.3,0-0.5,0.1c-0.5,0.2-0.9,1.1-1.4,0.6
	C40.5,187.6,40.9,186.5,40.5,186z"/>
<path class="st0" d="M63.2,204.3c-0.3,0.2-0.4,0.3-0.5,0.3c-0.4-0.1-0.8,0.4-1.2,0c0,0,0-0.2,0.1-0.3
	C62,203.9,62.5,203.9,63.2,204.3z"/>
<path class="st0" d="M149.1,204.2c-0.6,0.8-1.4,0.8-2,1.1c-1.2,0.6-2.3,1.4-3.6,1.7c-1.2,0.3-1.9-0.1-2-1.2
	c-0.2-1.6-0.9-1.9-2.3-1.1c-1.1,0.6-2.2,1.1-3.1,1.9c-0.6,0.5-1.5,0.4-2.2,0.4c-1.4,0.1-2.8,0.2-4.2-0.1c-2.1-0.3-4.6-2.8-4.3-5.2
	c0.2-1.4-0.3-2.9,0.7-4.2c0.4-0.5,1-1,1.5-1.2c1.2-0.5,2.3-1.3,3.5-1.8c1.4-0.6,3-0.8,4.3-1.7c0.1-0.1,0.2-0.2,0.3-0.2
	c1.6,0.1,2.6-1.2,4.1-1.5c0.5-0.1,0.8-0.4,0.9-0.9c0.2-2.1,0-4.3-0.6-6.3c-0.8-2.7-3.6-4.1-6.6-3.5c-2.6,0.6-4.4,2.6-3.6,5.7
	c0.2,0.7,0.1,1.1-0.7,1.2c-0.4,0.1-0.8,0.3-1.1,0.5c-0.9,0.6-1.3,0.4-1.6-0.6c-0.5-1.9-0.1-3.6,1.4-4.9c0.7-0.6,1.4-1.2,2.3-1.5
	c1.1-0.4,2.1-1.1,3.2-1.6c1.4-0.6,2.7-0.7,4.1-0.6c3.8,0.3,7.1,3.2,7.1,7.2c0.1,4.9,0.1,9.9,0,14.8c0,1,0.4,1.8,0.9,2.7
	c0.3,0.6,1,0.6,1.6,0.5C147.8,204.1,148.4,203.9,149.1,204.2z M140.5,196.4c0,0-0.1,0-0.1,0c0-0.8,0-1.7,0-2.5
	c0-0.9-0.4-1.1-1.2-0.7c-1.3,0.5-2.6,1.1-3.9,1.6c-1.4,0.5-2.8,1-4,2c-1.1,1-1.9,2.1-1.7,3.6c0.4,3,3.7,4.9,6.6,4
	c1.4-0.5,2.6-1.3,3.8-2c0.5-0.3,0.5-0.8,0.5-1.3C140.4,199.5,140.5,198,140.5,196.4z"/>
<path class="st0" d="M238.1,190.4c-3,0-6,0-9,0c-1,0-1.4,0.4-1.4,1.2c0.1,1.9,0.2,3.8,0.9,5.6c0.7,1.6,1.2,3.3,2.4,4.6
	c2.1,2.4,4.6,3.8,8,3.7c2.2,0,4.2-0.5,6.4-0.6c0.7,0,1-0.8,1.7-0.9c0.3-0.1,0.7-0.5,0.9,0c0.2,0.5-0.4,0.5-0.6,0.6
	c-1.1,0.7-2.2,1.3-3.4,1.7c-2.5,0.8-5,1.2-7.7,0.9c-2-0.2-4-0.6-5.8-1.6c-2.5-1.5-4.5-3.4-5.6-6.1c-0.8-2-1.6-4-1.4-6.3
	c0.1-1.3,0-2.6,0.4-3.8c0.8-2.9,2.6-5.3,4.6-7.4c1.4-1.5,3.2-2.5,5.2-2.9c2.3-0.4,4.6-0.6,6.9,0.2c1.4,0.5,2.7,0.9,3.8,1.8
	c0.3,0.2,0.6,0.4,0.8,0.6c1.9,2,3.2,4.3,3.3,7.2c0,1.1-0.4,1.3-1.3,1.3C244.2,190.4,241.1,190.4,238.1,190.4z M244,187.1
	c0.6-0.4,0.3-1,0.2-1.5c-1.1-3.6-3.9-5.3-7.4-6c-1.6-0.3-3.3,0.4-4.7,1.2c-0.9,0.5-2,1.1-2.6,2.1c-0.9,1.6-2.1,3.1-1.9,5
	c0,0.4,0,0.7,0.6,0.6l0.1,0l0.1,0c0.1,0.8,0.7,0.5,1.1,0.5c4.4,0,8.8,0,13.2,0c0.4,0,0.9,0,1.2-0.2c0.4-0.3,1.1-0.8,0.1-1.3
	C244,187.5,244,187.3,244,187.1z"/>
<path class="st0" d="M106.2,190c0-2.4,0-4.7,0-7.1c0-1.7-0.3-2.1-2.1-2.1c-0.6,0-1.2,0-1.8,0c-0.3,0-0.6,0-0.6-0.3
	c-0.1-0.3,0.2-0.4,0.4-0.5c2.1-1.4,3.6-3.3,5.2-5.2c0.8-0.9,1.6-1.9,2-3c0.1-0.3,0.3-0.6,0.6-0.6c0.4,0.1,0.3,0.5,0.3,0.8
	c0,2,0.1,3.9,0,5.9c0,1.1,0.3,1.6,1.4,1.5c2.5,0,4.9,0,7.4,0c0.4,0,1.2-0.4,1.1,0.5c-0.1,0.7-0.1,1.4-1.3,1.3
	c-2.4-0.1-4.8,0-7.2-0.1c-1.1,0-1.4,0.3-1.4,1.5c0,3.8,0.1,7.5,0,11.3c-0.1,2.7-0.1,5.5,1.5,8c0.7,1.1,1.6,1.9,3,2.1
	c1.7,0.3,3.4,0.1,5.1-0.4c0.3-0.1,0.7-0.1,0.8,0.2c0.2,0.4-0.2,0.5-0.4,0.6c-0.6,0.3-1.1,0.7-1.6,1.2c-1.9,1.7-5.2,1.9-7.4,0.5
	c-1.3-0.8-2.4-1.6-3.2-2.9c-0.3-0.5-0.5-0.9-0.7-1.4c-1.1-3.4-1-7-0.9-10.5C106.3,190.9,106.3,190.4,106.2,190
	C106.2,190,106.2,190,106.2,190z"/>
<path class="st0" d="M54.7,198.5c0.1,0.1,0.1,0.2,0,0.3c0,0,0,0,0,0C54.7,198.7,54.7,198.6,54.7,198.5L54.7,198.5z"/>
<path class="st0" d="M54.5,198.5c0-0.1,0-0.1,0-0.2c0.1,0,0.2,0,0.2,0l0,0c0,0.1,0,0.2,0,0.2c0,0,0,0,0,0
	C54.6,198.5,54.6,198.5,54.5,198.5z"/>
<path class="st0" d="M54.5,198.3c-0.2-0.1-0.2-0.2,0-0.2C54.5,198.1,54.5,198.2,54.5,198.3z"/>
<polygon class="st0" points="54.7,198.3 54.8,198.2 54.7,198.3 "/>
<path class="st0" d="M244,187.1c-0.6-1.5-1-3.1-2.3-4.3c-2.9-2.9-8.7-3.3-11.7,0.9c-1,1.5-2,3-1.7,5c-0.5,0.1-0.5-0.3-0.6-0.6
	c-0.2-2,0.9-3.5,1.9-5c0.6-1,1.7-1.6,2.6-2.1c1.4-0.8,3.1-1.6,4.7-1.2c3.4,0.7,6.2,2.4,7.4,6C244.3,186.1,244.6,186.7,244,187.1z"/>
<path class="st0" d="M228.4,188.7c1.4-0.2,2.9-0.1,4.4-0.1c3.3,0,6.6,0,9.9,0c0.7,0,1.2-0.2,1.3-0.9c1,0.5,0.3,1-0.1,1.3
	c-0.3,0.3-0.8,0.2-1.2,0.2c-4.4,0-8.8,0-13.2,0C229.1,189.2,228.5,189.5,228.4,188.7z"/>
<path class="st0" d="M54.5,198.5c0.1,0,0.2,0,0.2,0c0,0.1,0,0.2,0,0.3c-0.1,0-0.1,0-0.2,0C54.5,198.7,54.5,198.6,54.5,198.5
	L54.5,198.5z"/>
<path class="st0" d="M54.5,198.5c0,0.1,0,0.2,0,0.2C54.3,198.7,54.3,198.6,54.5,198.5z"/>
</svg>
