<?xml version="1.0" encoding="utf-8"?>
<!-- Generator: Adobe Illustrator 19.2.1, SVG Export Plug-In . SVG Version: 6.00 Build 0)  -->
<svg version="1.1" id="Capa_1" xmlns="http://www.w3.org/2000/svg" xmlns:xlink="http://www.w3.org/1999/xlink" x="0px" y="0px"
	 viewBox="0 0 276 250" style="enable-background:new 0 0 276 250;" xml:space="preserve">
<style type="text/css">
	.st0{fill:#797878;}
	.st1{fill:#00DFFA;}
</style>
<path class="st0" d="M141,77.9c0.5,0.3,1.1,0.5,1.7,0.3c3.9,2.3,8.3,3.1,12.3,5c0.6,0.6,1.4,1,2.3,1.1c0.3,0.6,0.7,0.9,1.4,0.8
	c1.2,1.2,2.7,1.9,4.2,2.7c0.3,0.6,0.8,0.9,1.5,1c0.2,0.2,0.4,0.3,0.6,0.5c0.5,0.8,1,1.4,2,1.5c2.3,2.1,4.5,4.2,6.8,6.3
	c-0.1,0.9,0.5,1.4,1.2,1.2c0.8-0.2,0.6-1,0.2-1.7c0-6.5,0.2-13,0.1-19.5c0-2,0.5-3.1,2.6-2.9c2.8,0.3,5.5,0.3,8.3,0
	c0.4,0,0.7,0,1.1,0c1.7,0.4,3.4,0.6,5.2,0.3c0.5,0.3,1,0.3,1.6,0.1c5.9,1.1,11.7,2.2,17.6,3.2c0.5,0.3,1,0.6,1.6,0.5
	c4.1,1.7,8.3,3.4,12.4,5.1c0.3,0.1,0.5,0.2,0.8,0.3c0.2,0.3,0.4,0.5,0.8,0.4l0.1,0.1c0,0,0.2,0,0.2,0c2,2.1,4.3,3.6,7,4.5
	c0.2,0.2,0.4,0.4,0.6,0.5c1.5,1.6,3.2,3,5.1,4.1c1.7,1.8,3.5,3.5,5.2,5.3c0.1,0.6,0.4,1,1,1.2c0.2,0.6,0.5,1.1,1.1,1.4
	c0.5,1.3,1.5,2.4,2.5,3.3c0,0.2,0,0.3,0.2,0.3c2.3,4.7,4.7,9.4,7.5,13.8c0.1,0.2,0.2,0.5,0.3,0.7c0.5,2.4,1.3,4.6,2.5,6.8
	c-0.1,0.8,0.2,1.4,0.6,2.1c-0.2,0.6-0.1,1.2,0.4,1.6c0.1,0.3,0.2,0.7,0.3,1c0.3,2.8,0.8,5.6,1.9,8.3c0,0.3,0.1,0.7,0.1,1
	c-0.1,1.1-0.2,2.1,0.5,3.1c0,0.4,0.1,0.7,0.1,1.1c0.2,5.2,0.6,10.3,0.5,15.5c0,2-0.4,2.8-2.7,2.8c-51.3-0.1-102.6-0.1-153.9,0
	c-2.1,0-2.9-0.4-2.9-2.7c0.1-27.7,0.1-55.4,0-83c0-2,0.5-2.8,2.6-2.7c5.3,0.2,10.5,0.2,15.8,0.3c0.5,0.3,1,0.3,1.6,0.1
	c1,0.6,2,0.5,3.1,0.4c0.5,0.1,1,0.1,1.5,0.2C133.7,76.3,137.4,77.1,141,77.9z M149.6,145.1C149.6,145.1,149.6,145.1,149.6,145.1
	c7.5,0,15.1,0,22.6,0c3.2,0,3.3-0.1,2.8-3.2c-1.6-9.1-4.4-17.8-9.7-25.5c-9.2-13.4-21.9-21.1-38.3-22.5c-2.2-0.2-2.9,0.4-2.8,2.6
	c0.1,15.3,0.1,30.6,0,45.9c0,2,0.6,2.7,2.6,2.7C134.3,145,141.9,145.1,149.6,145.1z M194.1,119.2
	C194.1,119.2,194.1,119.2,194.1,119.2c0,7.8,0,15.6,0,23.4c0,1.4,0,2.5,1.9,2.5c15.7,0,31.5,0,47.2,0c1.5,0,2-0.5,1.8-2
	c-2.4-15.8-8.8-29.5-21.9-39.4c-7.8-5.9-16.6-9.2-26.3-9.8c-2-0.1-2.7,0.4-2.7,2.5C194.2,104,194.1,111.6,194.1,119.2z"/>
<path class="st1" d="M97.9,92.4c0.1,0.2,0.2,0.2,0.4,0.2c0,0.8,0.1,1.5,0.1,2.3c0,20.8,0,41.6,0,62.5c0,5.4,0,5.6-5.4,5.4
	c-17.6-0.6-35.2,1.8-52.7-1.9c-0.3-0.3-0.7-0.4-1.1-0.4c-1.1-0.8-2.4-1.2-3.7-1.4c-0.2-0.1-0.4-0.2-0.7-0.2
	c-3.2-2.2-6.5-4.5-9.7-6.7c-0.3-0.7-0.8-1.2-1.5-1.5c-0.6-1-1.2-1.9-2.2-2.6c0,0,0,0,0,0c0-0.6-0.4-1-1-1.3
	c-0.2-0.7-0.6-1.3-1.1-1.8c-0.6-1.4-1.2-2.9-2.4-4c-0.1-0.2-0.2-0.4-0.2-0.6c-0.3-1.3-0.5-2.7-1.6-3.6c-0.1-0.3-0.1-0.7-0.2-1
	c-0.7-3.5-1.5-7-2.2-10.4c0.1-16.8,0.2-33.6-0.1-50.4c0.2-0.2,0.4-0.3,0.6-0.5c0.3,0,0.7-0.1,1-0.1c4.8,0.3,9.7,0.3,14.5,0
	c0.3,0,0.7,0,1,0c0.2,0,0.3,0,0.5,0c0.3,0.1,0.6,0.1,0.8,0.2c0.1,1,0.2,2.1,0.2,3.1c0,14.2,0,28.5,0.2,42.7c0,4,0.4,8.1,2.5,11.7
	c0,0.8,0.4,1.5,1,2.1c0,0.7,0.4,1.1,0.9,1.3l0,0.1c0,0,0.1,0.1,0.1,0.1c0.4,1.4,1.4,2.4,2.6,3.1c0.5,0.8,1.1,1.4,2,1.6
	c0.6,1,1.6,1.3,2.6,1.6c0.2,0.1,0.4,0.1,0.6,0.2c3.3,2.3,7,2.7,10.8,2.7c8.1,0.4,16.3,0.4,24.4,0c1.4-0.5,0.8-1.7,0.8-2.6
	c0-15.4,0-30.9,0-46.3c0-1.1,0.1-2.2,0.2-3.3c0.5-0.1,1-0.1,1.5-0.2c0.2,0,0.3,0,0.5,0c0.3,0,0.7,0,1,0C88.2,92.7,93,92.8,97.9,92.4
	z"/>
<path class="st0" d="M230.5,184.9c0-0.3-0.1-0.6-0.1-1c0-0.4,0-0.7,0-1.1c0.1-0.7,0.1-1.3,0.2-2c0.4-0.5,0.8-1,0-1.5
	c-1.5-1.2-2.2,0.8-3.3,0.8c-2,1.9-0.8,4.2-0.9,6.4c-0.2,0.8-0.1,1.8-1.1,2.2c-0.6-0.1-1.3-0.2-1.9-0.3c-0.1-0.8-0.2-1.6-0.3-2.4
	c0-0.4,0-0.7,0-1.1c0.3-1.7,0.3-3.4,0-5.2c0.1-0.9,0.2-1.8,0.3-2.7c1.6-0.4,3.1,0.9,4.8-0.1c0.6-0.4,1,0.4,1.1,1
	c0.3,2,1.1,1.8,2.4,0.8c4.1-3.3,7.6-2.4,9.3,2.5c0,1.4-0.1,2.8-0.1,4.2c-0.2,0.5-0.3,0.9-0.5,1.4c-0.6,0.2-0.8,0.7-1.1,1.2
	c-0.3,0.2-0.7,0.4-1,0.6c-1.6,0-3.1,0-4.7,0.1c-0.6-0.4-1.3-0.8-1.9-1.2C231.2,186.7,230.8,185.8,230.5,184.9z M233.4,182.7
	c0,0.7,0,1.2,0.1,1.7c0.2,1.3,0.7,2.4,2.2,2.4c1.4,0,1.8-1.2,2-2.3c0.3-1.3,0.2-2.6-0.2-3.8c-0.3-1-0.9-1.6-2-1.6
	c-1.2,0-1.6,0.8-1.9,1.8C233.5,181.5,233.5,182.2,233.4,182.7z"/>
<path class="st0" d="M143,172.6c-0.1,3-0.2,6,0.1,9c-0.3,0.9-0.4,1.8,0,2.7c-0.2,1.1-0.3,2.2,0,3.3c-0.6,0.9-1.3,1.2-2.4,0.9
	c-0.7-0.2-1.7-0.4-2.3-0.1c-1.7,0.9-3.1,0.3-4.6-0.5c-0.3-0.6-0.5-1.2-0.8-1.8c0-0.6,0.2-1.1-0.3-1.6c0-1.2,0-2.3,0-3.5
	c0.3-0.3,0.4-0.7,0.3-1.1c1.1-2.3,2.8-3.3,5.4-2.8c0.2,0.5,0.6,0.9,1.1,0.7c0.5-0.2,0.4-0.6,0.2-1c0-1.5,0.1-3.1,0.1-4.6
	c0.4-0.2,0.7-0.3,1.1-0.5c0.3,0,0.6,0,0.9,0C142.3,171.9,142.7,172.2,143,172.6z M135.7,182.9c0,0.5-0.1,1,0,1.5
	c0.2,1.2,0.4,2.3,1.9,2.3c1.4,0.1,1.8-1,2.1-2.2c0.4-1.5,0.3-2.9-0.3-4.3c-0.3-0.7-0.8-1.1-1.5-1.2c-0.9,0-1.4,0.5-1.8,1.2
	C135.7,181.2,135.7,182,135.7,182.9z"/>
<path class="st0" d="M124.8,186.6c0,0.5,0,1,0,1.4c-2.5,0.8-5.1,0.1-7.7,0.7c-0.6-0.6-1.2-1.1-1.8-1.7c-0.8-2.9-0.9-5.8,0.4-8.7
	c1.1-1.2,2.6-1.5,4.2-1.5c0.3,0.5,0.8,0.9,1.4,0.8c0.6-0.1,0.5-0.6,0.3-1c0.1-1.5,0.1-3.1,0.2-4.6c0.2-0.1,0.4-0.3,0.6-0.4
	c0.6,0,1.2,0,1.8,0c0.2,0.3,0.4,0.7,0.7,1c-0.2,3.8-0.3,7.6,0,11.4C124.5,184.8,124.3,185.7,124.8,186.6z M117.5,183.1
	c0,0.5,0,1,0.1,1.5c0.2,1.1,0.5,2.1,1.8,2.2c1.3,0.1,1.8-0.8,2.1-1.9c0.2-0.6,0.3-1.2,0.3-1.8c-0.1-1.7,0.1-4-2.2-3.9
	C117.3,179.3,117.6,181.5,117.5,183.1z"/>
<path class="st0" d="M179.8,176.2c0.3,0.7,0.5,1.3,0.8,2c0,3.3,0.3,6.7-2.5,9.3l-0.2,0c0,0-0.1,0.2-0.1,0.2
	c-2.4,1.3-5.1,0.7-7.6,0.8c-1.2,0-1.4-0.8-1.4-1.7c0-4,0-7.9,0-11.9c0-1.2,0.4-1.7,1.6-1.7C174,172.8,177.2,173.6,179.8,176.2z
	 M171.8,180.8C171.8,180.8,171.7,180.8,171.8,180.8c0,1.2,0.1,2.4,0,3.6c-0.2,2.2,1,2.5,2.7,1.9c2.6-0.9,3.1-3.1,3.1-5.4
	c0-2.3-0.6-4.5-3.1-5.5c-1.7-0.6-2.9-0.3-2.7,1.9C171.8,178.5,171.8,179.7,171.8,180.8z"/>
<path class="st0" d="M25.4,185.5c-0.1,0.4-0.3,0.8-0.4,1.2c-1.2,1.8-3.2,1.9-5.1,2c-0.3,0-0.7,0-1,0c-0.9-0.2-1.7-0.4-2.6-0.6
	c-0.4-0.5-0.8-1.1-1.2-1.6c-0.7-3.8-0.3-7.6-0.4-11.4c0-1.1-0.1-2.1,1.5-2.1c1.6,0,1.3,1.2,1.4,2.2c0.2,3.1-0.4,6.2,0.3,9.2
	c0.5,2.2,1.7,2.9,3.7,1.5c1.3-0.5,0.9-1.7,0.9-2.7c0.1-3.4,0.1-6.8,0.1-10.3c0,0,0,0,0,0c1,0,2.1-0.3,3.1,0.5c0,0.5,0,1,0,1.5
	C25.1,178.6,25.6,182.1,25.4,185.5z"/>
<path class="st0" d="M92.1,178.3c0.2-0.2,0.4-0.4,0.6-0.6c1.2-0.3,2.4-1.1,3.7-0.4c1.6,0.9,2,0.2,1.8-1.3c-0.1-0.7,0-1.4,0-2.1
	c0-0.9-0.1-2.1,1.3-2c1.3,0,1.4,1,1.4,2c0.1,3,0.1,6,0.2,9.1c0,0.3,0,0.7,0,1c-0.1,2.5,0.4,4.9-3.9,4.6c-3.8-0.3-4.2,0.3-6.1-3
	c0-1.6-0.1-3.1-0.1-4.7C91.6,180.1,92,179.2,92.1,178.3z M93.9,183c0,0.6,0,1.1,0.1,1.6c0.2,1,0.5,2.1,1.8,2.2c1.4,0.1,2-0.9,2.3-2
	c0.3-1.2,0.2-2.4,0-3.6c-0.3-1.2-0.8-2.2-2.2-2.1c-1.3,0.1-1.6,1.1-1.9,2.1C93.9,181.9,93.9,182.5,93.9,183z"/>
<path class="st0" d="M104.1,188.3c0-0.2-0.2-0.3-0.3-0.3c-0.9-1.2-0.7-2.7-0.7-4.1c0.6-0.6,1.1-1.2,1.7-1.7c1.2-0.2,2.3-0.5,3.5-0.7
	c0.6-0.1,1.3-0.1,1.3-0.9c0-0.8-0.6-1.2-1.3-1.4c-1.4-0.4-2.7,0.4-4,0.5c-0.4-1.5,0.2-2.2,1.7-2.6c1.8-0.5,3.4-0.1,5.1,0.3
	c2.4,3.1,1,6.8,1.5,10.2c0.1,0.5-0.5,1.1-1,0.9C109,187.6,106.5,189.5,104.1,188.3z M106.8,186.9c2.3,0,2.8-1.1,2.9-2.5
	c0.1-0.8-0.3-1.5-1.1-1.3c-1.4,0.2-2.8,0.5-2.9,2.3C105.7,186.5,106.4,187,106.8,186.9z"/>
<path class="st0" d="M264,178.8c0.2,0.5,0.5,1,0.7,1.5c0.1,2.3,0.2,4.6-0.6,6.8c-0.6,0.5-1.1,1-1.7,1.5c-2.1-0.1-4.2,0.7-6.2-0.3
	c-0.3-0.4-0.6-0.8-0.9-1.2c-0.2-0.3-0.4-0.7-0.6-1c-0.1-0.3-0.2-0.7-0.3-1c0-1.4,0-2.8,0-4.2c2.1-4,3.8-4.7,8.3-3.2
	C263.3,178,263.6,178.4,264,178.8z M262,182.6c0-0.2,0-0.9-0.2-1.5c-0.3-1.1-0.8-1.9-2.1-1.9c-1.2,0-1.7,0.8-1.9,1.8
	c-0.2,0.7-0.3,1.3-0.4,2c-0.1,1.9,0.4,4.2,2.3,4.3C261.6,187.2,262,184.9,262,182.6z"/>
<path class="st0" d="M145,181.3c0.4-0.9,0.8-1.8,1.1-2.7c0.7-0.6,1.3-1.1,2-1.7c0,0,0.2,0,0.2,0c0.3-0.1,0.6-0.2,0.9-0.3
	c4,0.6,4.8,1.6,5.4,6.6c-1.5,0.9-3.2,0.3-4.8,0.5c-0.7,0.1-1.8-0.3-1.9,0.8c-0.2,1.1,0.5,1.8,1.6,2c0.8,0.1,1.7,0.2,2.5,0
	c1.3-0.3,1.7,0.4,1.8,1.5c-0.2,0.2-0.3,0.4-0.5,0.5c-0.9,0-1.8,0.1-2.6,0.1c-0.3,0-0.7,0-1,0c-1.3-0.2-2.6-0.4-3.6-1.3
	c-0.4-1-0.8-2-1.3-3C145,183.4,145,182.4,145,181.3z M149.9,182.1c0.8-0.1,1.9,0.2,1.8-1.1c-0.1-1.1-0.6-2-1.9-1.9
	c-1.1,0.1-1.8,0.8-1.9,1.8C147.8,182.4,149,182,149.9,182.1z"/>
<path class="st0" d="M191.5,188.1c-0.2,0-0.2,0.2-0.2,0.3c-1.9,0.1-3.8,0.1-5.7,0.2c-0.6-0.4-1.2-0.8-1.8-1.2
	c-1.1-2.2-1.4-4.6-1-7.1c0,0,0-0.2,0-0.2c0.6-0.3,0.7-0.9,0.7-1.4c1.8-1.8,3.9-2.5,6.4-1.4c0.1,0.2,0.3,0.4,0.4,0.6
	c1.4,1.5,2.2,3.4,1.5,5.1c-0.6,1.6-2.6,0.4-4,0.7c-0.2,0-0.3,0-0.5,0c-0.7,0.1-1.8-0.3-1.8,0.9c-0.1,1,0.5,1.9,1.6,2
	c0.9,0.1,1.9,0.1,2.8,0C191.3,186.4,191.4,187.2,191.5,188.1z M187.3,182.1c0.9-0.1,2.1,0.2,2-1.3c-0.1-1.1-0.7-1.8-1.8-1.8
	c-1.2,0-1.9,0.8-2,1.9C185.4,182.4,186.5,182,187.3,182.1z"/>
<path class="st0" d="M32.1,177.5c0.5-0.2,0.9-0.4,1.4-0.7c0.5,0,1.1,0,1.6,0c0.7,0.5,1.3,1,2,1.4c0,0.4,0.2,0.8,0.5,1
	c0.1,0.3,0.1,0.7,0.2,1c0,0.4,0,0.7,0.1,1.1c-0.2,1.7-0.2,3.4,0,5.2c-0.8,2.6-1.2,2.7-3.3,1c0-0.3,0-0.7,0-1c0.5-1.7,0.5-3.5,0-5.2
	c-0.1-0.3-0.1-0.7-0.2-1c-0.1-0.9-0.7-1.1-1.5-0.8c-1.1,0.1-1.5,0.8-1.5,1.8c-0.6,1.6-0.3,3.2-0.3,4.8c0.1,2.5-0.9,2.9-3,2
	c0-0.5,0-1.1-0.1-1.6c0.3-0.9,0.2-1.7,0-2.6c0.2-1.2,0.2-2.4,0-3.6c0.2-0.5,0.2-1.1,0-1.6c0.1-0.5,0.2-1,0.2-1.5
	c0.2-0.1,0.3-0.2,0.5-0.3c0.5,0,1.1,0,1.6,0.1C30.8,177.7,31.1,178.7,32.1,177.5z"/>
<path class="st0" d="M57.2,179.8c2.8-3.8,5.6-3.9,8.5-0.5c0.1,0.5,0.1,1,0.3,1.5c0.6,2.2,0,3.3-2.5,3c-0.3,0-0.7-0.1-1,0
	c-1,0.3-2.8-0.8-2.8,1.1c0,1.7,1.6,2,3.1,1.9c0.3,0,0.7-0.1,1-0.1c0.7,0,1.7-0.5,1.7,0.8c0,1.1-1,1-1.7,1.1c-1.8,0-3.6,0.2-5.4-0.4
	c-0.5-0.9-1.1-1.7-1.6-2.6c-0.1-1.2-0.1-2.4-0.2-3.7c0.1-0.3,0.1-0.7,0.2-1C57.2,180.6,57.3,180.2,57.2,179.8z M61.7,182.1
	c0.6-0.2,1.8,0.2,1.7-1.2c-0.1-1.1-0.6-2-2-1.9c-1.1,0.1-1.8,0.7-1.8,1.8C59.5,182.3,60.7,182,61.7,182.1z"/>
<path class="st0" d="M46,176.9c2-0.1,2.5,1.4,2.8,2.9c0.1,0.5,0,1.1,0.2,1.5c0.6,1.1,0.1,3.3,1.4,3.1c1.1-0.1,1.1-2.2,1.1-3.6
	c0.4-0.6,0.7-1.3,0.6-2.1c0.5-0.4,0.6-0.9,0.6-1.5c0.7-0.1,1.4-0.3,2.1-0.4c0.2,0.5,0.3,0.9,0.5,1.4c-0.5,0.6-0.7,1.3-0.7,2
	c-0.5,0.5-0.5,1-0.4,1.6c-0.2,0.4-0.4,0.7-0.2,1.2c-1,0.7-0.8,2-1.2,3c-0.5,1.2-0.6,2.5-2.2,2.7c-0.8-0.3-1.8,0-2.5-0.7
	c-0.3-2-0.8-3.9-1.7-5.6c-0.1-1-0.2-1.9-0.8-2.7C45.6,178.8,44.9,177.7,46,176.9z"/>
<path class="st0" d="M208.5,176.7c0.5,0.3,1.1,0.4,1.6,0.3c0.6,0.8,1.7,1.2,1.9,2.3c0.5,2.7,0.2,5.5,0.2,8.2c0,0.6-0.5,1.1-1,1
	c-2.6-0.7-5.3,0.9-7.8-0.6c0,0,0,0,0,0c-1.2-4.3,0.2-6,4.4-5.5c0.9,0.1,1.8-0.1,1.8-0.9c0-0.8-0.2-2-1.4-2.2c-0.7-0.1-1.5-0.1-2.3,0
	c-0.6,0.1-1.3,0.7-1.8-0.2c-0.5-0.8,0.4-1.2,0.6-1.8c0.8-0.2,1.7-0.4,2.5-0.6C207.8,176.7,208.2,176.7,208.5,176.7z M209.8,184.3
	c0.1-1.1-0.6-1.5-1.2-1.2c-1,0.5-3-0.2-3,2c0,1.2,0.6,1.7,1.7,1.7C209.4,187.1,209.4,185.4,209.8,184.3z"/>
<path class="st0" d="M193.9,179.3c2.2-2.6,4-3,7-1.6c0,1.6-1,1.7-2.2,1.5c-0.7-0.1-1.4,0-1.7,0.7c-0.3,0.8,0.3,1.3,0.9,1.6
	c0.5,0.3,1,0.6,1.5,1c2,1.3,2.8,2.9,1.6,5.2c0,0-0.1,0.1-0.1,0.1c-2.1,1.3-4.5,0.6-6.8,0.7c0,0,0,0,0,0c-0.4-1.7,0.3-2.2,1.9-1.9
	c0.9,0.2,2.1,0.4,2.5-0.6c0.5-1.3-0.9-1.7-1.7-2.1C194.9,182.9,193.7,181.5,193.9,179.3z"/>
<path class="st0" d="M245.3,171.5c0.5,0.6,0.9,1.2,0.9,2c-0.1,5-0.1,9.9-0.2,14.9c-0.4,0.1-0.8,0.3-1.2,0.4
	c-1.4-0.3-1.6-1.2-1.6-2.4c0.1-4.1,0-8.2,0-12.3c0-0.9,0-1.7,0.6-2.4C244.4,171.6,244.9,171.6,245.3,171.5z"/>
<path class="st0" d="M156.9,176.1c0-0.8,0.2-1.5,0.1-2.3c-0.3-1.7,0.5-2.3,2.1-2.3c0.3,0.3,0.7,0.7,1,1c0,5.2,0,10.3-0.1,15.5
	c-0.7,0.6-1.6,0.6-2.5,0.7c-1.1-2.3-0.3-4.8-0.5-7.1c-0.1-1.1-0.1-2.2-0.1-3.4C157.1,177.6,157.1,176.9,156.9,176.1z"/>
<path class="st0" d="M77.1,186.4c0.7,0.4,1.3,0.5,2.1,0.2c0.7,0.1,1.2,0,1.3-0.8c0-0.8-0.5-1.2-1.2-1.3c-0.4-0.7-1.1-0.8-1.7-1
	c-0.6-0.6-1.2-1.3-1.8-1.9c0-0.2-0.1-0.5-0.1-0.7c0.4-1,0.8-2,1.2-3.1c0.7-0.3,1.3-0.6,2-0.9c0.9,0,1.8,0,2.6,0
	c0.3,0.1,0.7,0.2,1,0.3c0.2,0.2,0.4,0.4,0.5,0.6c0,0.3,0,0.7,0,1c-0.3,0.2-0.6,0.3-0.9,0.5c-1.1,0.4-3-0.9-3.2,0.9
	c-0.2,1.6,1.8,1.8,2.8,2.6c0.1,0,0.2,0,0.2,0.1c0.4,0.4,0.8,0.8,1.2,1.1c0.2,1.7,0,3.3-1.3,4.6l-0.2,0c0,0-0.2,0.2-0.2,0.2
	c-1.9-0.1-3.7-0.3-5.6-0.4c0-0.5,0-1-0.1-1.5C76.1,186.6,76.6,186.5,77.1,186.4z"/>
<path class="st0" d="M252.2,187.6c-0.6,0.7-1.2,1.4-2.2,0.9c-0.9-0.4-0.8-1.2-0.8-2c0-4.1,0-8.3,0.1-12.4c0-2.6,0.5-2.8,2.9-1.5
	C251.9,177.6,251.9,182.6,252.2,187.6z"/>
<path class="st0" d="M68.3,187.6c0.7-2.7,0.3-5.4,0.2-8.1c0-0.9-0.1-1.7,0.3-2.5c0.7,0.1,1.4,0.1,2,0.2c0.5,1.7,1.1,0.9,1.6,0
	c0.5-0.1,1-0.3,1.5-0.4c0.8,1,0.6,2-0.1,2.9c-0.6,0-1.2-0.1-1.5,0.6c-1.5,0.7-0.9,2-0.8,3.2c-0.2,1.2-0.2,2.4,0,3.6
	c0,0.4-0.1,0.7-0.1,1.1c-0.2,0.1-0.2,0.2-0.2,0.3c-0.8,0.1-1.7,0.1-2.5,0.2C68.7,188.3,68.5,187.9,68.3,187.6z"/>
<path class="st0" d="M40.3,188.3c0-2.9,0.2-5.8,0-8.7c-0.1-2,0.5-2.9,2.5-2.7c0.8,3.2-0.1,6.4,0.5,9.6c0,0.3,0,0.7,0,1
	C42.7,188.9,41.5,188.7,40.3,188.3z"/>
<path class="st0" d="M215.4,188.6c-0.3-3.8-0.3-7.6-0.1-11.4c1.4-0.7,2.8,1.6,4.1-0.1c2.2,0.3,1.7,1.5,0.5,2.2c-1.7,1-2,2.4-2,4.1
	c0,1.7-0.1,3.5-0.1,5.2c0,0,0,0,0,0c-0.7,0.1-1.3,0.1-2,0.2C215.7,188.6,215.5,188.5,215.4,188.6z"/>
<path class="st0" d="M85.9,177.1c2-0.4,2.8,0.3,2.7,2.5c-0.2,2.8,0,5.7,0.1,8.5c-0.9,0.2-1.8,0.3-2.7,0.5c0,0,0,0,0,0
	C85.5,184.8,85.6,181,85.9,177.1z"/>
<path class="st0" d="M88,175c-0.6,0-1.3-0.1-1.9-0.1c-0.2-0.3-0.4-0.6-0.5-0.9c0.1-1.2,0.3-2.2,1.9-2c1.7,0.3,1.2,1.5,1.2,2.6
	C88.4,174.7,88.2,174.9,88,175z"/>
<path class="st0" d="M42.8,175c-0.5,0-1,0.1-1.5,0.1c-0.3-0.2-0.7-0.4-1-0.6c0-0.7-0.1-1.3-0.1-2c0.9-0.3,1.8-0.9,2.6-0.1
	C43.7,173.3,43.1,174.2,42.8,175z"/>
</svg>
